<svg width="18" height="13" viewBox="0 0 18 13" fill="none" xmlns="http://www.w3.org/2000/svg">
    <rect width="16.7028" height="0.850735" transform="matrix(-1 0 0 1 17.7139 5.98911)" fill="#EFEFEF"/>
    <mask id="path-2-inside-1_40001430_525" fill="white">
        <path d="M6.29694 0L6.47798e-07 6.41454L6.29277 12.8248L12.5897 6.41029L6.29694 0Z"/>
    </mask>
    <path d="M6.47798e-07 6.41454L-0.700534 7.12816L-1.40107 6.41454L-0.700534 5.70092L6.47798e-07 6.41454ZM6.29694 0L6.99748 0.713618L0.700536 7.12816L6.47798e-07 6.41454L-0.700534 5.70092L5.59641 -0.713618L6.29694 0ZM6.47798e-07 6.41454L0.700536 5.70092L6.9933 12.1112L6.29277 12.8248L5.59223 13.5385L-0.700534 7.12816L6.47798e-07 6.41454Z" fill="#EFEFEF" mask="url(#path-2-inside-1_40001430_525)"/>
</svg>
