<svg width="80" height="16" viewBox="0 0 80 16" fill="none" xmlns="http://www.w3.org/2000/svg">
    <path d="M7.68323 1.53058C7.71245 1.47155 7.75758 1.42187 7.81353 1.38713C7.86949 1.35239 7.93404 1.33398 7.9999 1.33398C8.06576 1.33398 8.13031 1.35239 8.18626 1.38713C8.24222 1.42187 8.28735 1.47155 8.31656 1.53058L9.85656 4.64991C9.95802 4.85523 10.1078 5.03285 10.293 5.16755C10.4782 5.30225 10.6933 5.38999 10.9199 5.42325L14.3639 5.92725C14.4292 5.9367 14.4905 5.96423 14.5409 6.00671C14.5913 6.0492 14.6289 6.10495 14.6492 6.16765C14.6696 6.23036 14.6721 6.29752 14.6563 6.36154C14.6405 6.42556 14.6071 6.48388 14.5599 6.52991L12.0692 8.95525C11.905 9.11531 11.7821 9.3129 11.7111 9.531C11.6402 9.7491 11.6233 9.98117 11.6619 10.2072L12.2499 13.6339C12.2614 13.6991 12.2544 13.7663 12.2296 13.8277C12.2048 13.8891 12.1632 13.9423 12.1096 13.9812C12.056 14.0202 11.9926 14.0432 11.9265 14.0478C11.8604 14.0524 11.7944 14.0384 11.7359 14.0072L8.65723 12.3886C8.45438 12.2821 8.22868 12.2264 7.99956 12.2264C7.77044 12.2264 7.54475 12.2821 7.3419 12.3886L4.2639 14.0072C4.20545 14.0382 4.1395 14.0521 4.07353 14.0474C4.00757 14.0427 3.94424 14.0196 3.89076 13.9807C3.83728 13.9418 3.79579 13.8887 3.771 13.8274C3.74622 13.7661 3.73914 13.699 3.75056 13.6339L4.3379 10.2079C4.3767 9.98174 4.35989 9.74951 4.28892 9.53128C4.21796 9.31304 4.09497 9.11535 3.93056 8.95525L1.4399 6.53058C1.39229 6.4846 1.35856 6.42618 1.34254 6.36196C1.32652 6.29775 1.32886 6.23033 1.34928 6.16737C1.36971 6.10442 1.40741 6.04847 1.45808 6.0059C1.50876 5.96333 1.57037 5.93585 1.6359 5.92658L5.07923 5.42325C5.30607 5.39025 5.52149 5.30262 5.70695 5.1679C5.89242 5.03319 6.04237 4.85543 6.1439 4.64991L7.68323 1.53058Z" fill="#FF6900" stroke="#FF6900" stroke-width="1.33333" stroke-linecap="round" stroke-linejoin="round"/>
    <path d="M23.6832 1.53058C23.7124 1.47155 23.7576 1.42187 23.8135 1.38713C23.8695 1.35239 23.934 1.33398 23.9999 1.33398C24.0658 1.33398 24.1303 1.35239 24.1863 1.38713C24.2422 1.42187 24.2873 1.47155 24.3166 1.53058L25.8566 4.64991C25.958 4.85523 26.1078 5.03285 26.293 5.16755C26.4782 5.30225 26.6933 5.38999 26.9199 5.42325L30.3639 5.92725C30.4292 5.9367 30.4905 5.96423 30.5409 6.00671C30.5913 6.0492 30.6289 6.10495 30.6492 6.16765C30.6696 6.23036 30.6721 6.29752 30.6563 6.36154C30.6405 6.42556 30.6071 6.48388 30.5599 6.52991L28.0692 8.95525C27.905 9.11531 27.7821 9.3129 27.7111 9.531C27.6402 9.7491 27.6233 9.98117 27.6619 10.2072L28.2499 13.6339C28.2614 13.6991 28.2544 13.7663 28.2296 13.8277C28.2048 13.8891 28.1632 13.9423 28.1096 13.9812C28.056 14.0202 27.9926 14.0432 27.9265 14.0478C27.8604 14.0524 27.7944 14.0384 27.7359 14.0072L24.6572 12.3886C24.4544 12.2821 24.2287 12.2264 23.9996 12.2264C23.7704 12.2264 23.5448 12.2821 23.3419 12.3886L20.2639 14.0072C20.2055 14.0382 20.1395 14.0521 20.0735 14.0474C20.0076 14.0427 19.9442 14.0196 19.8908 13.9807C19.8373 13.9418 19.7958 13.8887 19.771 13.8274C19.7462 13.7661 19.7391 13.699 19.7506 13.6339L20.3379 10.2079C20.3767 9.98174 20.3599 9.74951 20.2889 9.53128C20.218 9.31304 20.095 9.11535 19.9306 8.95525L17.4399 6.53058C17.3923 6.4846 17.3586 6.42618 17.3425 6.36196C17.3265 6.29775 17.3289 6.23033 17.3493 6.16737C17.3697 6.10442 17.4074 6.04847 17.4581 6.0059C17.5088 5.96333 17.5704 5.93585 17.6359 5.92658L21.0792 5.42325C21.3061 5.39025 21.5215 5.30262 21.707 5.1679C21.8924 5.03319 22.0424 4.85543 22.1439 4.64991L23.6832 1.53058Z" fill="#FF6900" stroke="#FF6900" stroke-width="1.33333" stroke-linecap="round" stroke-linejoin="round"/>
    <path d="M39.6832 1.53058C39.7124 1.47155 39.7576 1.42187 39.8135 1.38713C39.8695 1.35239 39.934 1.33398 39.9999 1.33398C40.0658 1.33398 40.1303 1.35239 40.1863 1.38713C40.2422 1.42187 40.2873 1.47155 40.3166 1.53058L41.8566 4.64991C41.958 4.85523 42.1078 5.03285 42.293 5.16755C42.4782 5.30225 42.6933 5.38999 42.9199 5.42325L46.3639 5.92725C46.4292 5.9367 46.4905 5.96423 46.5409 6.00671C46.5913 6.0492 46.6289 6.10495 46.6492 6.16765C46.6696 6.23036 46.6721 6.29752 46.6563 6.36154C46.6405 6.42556 46.6071 6.48388 46.5599 6.52991L44.0692 8.95525C43.905 9.11531 43.7821 9.3129 43.7111 9.531C43.6402 9.7491 43.6233 9.98117 43.6619 10.2072L44.2499 13.6339C44.2614 13.6991 44.2544 13.7663 44.2296 13.8277C44.2048 13.8891 44.1632 13.9423 44.1096 13.9812C44.056 14.0202 43.9926 14.0432 43.9265 14.0478C43.8604 14.0524 43.7944 14.0384 43.7359 14.0072L40.6572 12.3886C40.4544 12.2821 40.2287 12.2264 39.9996 12.2264C39.7704 12.2264 39.5448 12.2821 39.3419 12.3886L36.2639 14.0072C36.2055 14.0382 36.1395 14.0521 36.0735 14.0474C36.0076 14.0427 35.9442 14.0196 35.8908 13.9807C35.8373 13.9418 35.7958 13.8887 35.771 13.8274C35.7462 13.7661 35.7391 13.699 35.7506 13.6339L36.3379 10.2079C36.3767 9.98174 36.3599 9.74951 36.2889 9.53128C36.218 9.31304 36.095 9.11535 35.9306 8.95525L33.4399 6.53058C33.3923 6.4846 33.3586 6.42618 33.3425 6.36196C33.3265 6.29775 33.3289 6.23033 33.3493 6.16737C33.3697 6.10442 33.4074 6.04847 33.4581 6.0059C33.5088 5.96333 33.5704 5.93585 33.6359 5.92658L37.0792 5.42325C37.3061 5.39025 37.5215 5.30262 37.707 5.1679C37.8924 5.03319 38.0424 4.85543 38.1439 4.64991L39.6832 1.53058Z" fill="#FF6900" stroke="#FF6900" stroke-width="1.33333" stroke-linecap="round" stroke-linejoin="round"/>
    <path d="M55.6832 1.53058C55.7124 1.47155 55.7576 1.42187 55.8135 1.38713C55.8695 1.35239 55.934 1.33398 55.9999 1.33398C56.0658 1.33398 56.1303 1.35239 56.1863 1.38713C56.2422 1.42187 56.2873 1.47155 56.3166 1.53058L57.8566 4.64991C57.958 4.85523 58.1078 5.03285 58.293 5.16755C58.4782 5.30225 58.6933 5.38999 58.9199 5.42325L62.3639 5.92725C62.4292 5.9367 62.4905 5.96423 62.5409 6.00671C62.5913 6.0492 62.6289 6.10495 62.6492 6.16765C62.6696 6.23036 62.6721 6.29752 62.6563 6.36154C62.6405 6.42556 62.6071 6.48388 62.5599 6.52991L60.0692 8.95525C59.905 9.11531 59.7821 9.3129 59.7111 9.531C59.6402 9.7491 59.6233 9.98117 59.6619 10.2072L60.2499 13.6339C60.2614 13.6991 60.2544 13.7663 60.2296 13.8277C60.2048 13.8891 60.1632 13.9423 60.1096 13.9812C60.056 14.0202 59.9926 14.0432 59.9265 14.0478C59.8604 14.0524 59.7944 14.0384 59.7359 14.0072L56.6572 12.3886C56.4544 12.2821 56.2287 12.2264 55.9996 12.2264C55.7704 12.2264 55.5448 12.2821 55.3419 12.3886L52.2639 14.0072C52.2055 14.0382 52.1395 14.0521 52.0735 14.0474C52.0076 14.0427 51.9442 14.0196 51.8908 13.9807C51.8373 13.9418 51.7958 13.8887 51.771 13.8274C51.7462 13.7661 51.7391 13.699 51.7506 13.6339L52.3379 10.2079C52.3767 9.98174 52.3599 9.74951 52.2889 9.53128C52.218 9.31304 52.095 9.11535 51.9306 8.95525L49.4399 6.53058C49.3923 6.4846 49.3586 6.42618 49.3425 6.36196C49.3265 6.29775 49.3289 6.23033 49.3493 6.16737C49.3697 6.10442 49.4074 6.04847 49.4581 6.0059C49.5088 5.96333 49.5704 5.93585 49.6359 5.92658L53.0792 5.42325C53.3061 5.39025 53.5215 5.30262 53.707 5.1679C53.8924 5.03319 54.0424 4.85543 54.1439 4.64991L55.6832 1.53058Z" fill="#FF6900" stroke="#FF6900" stroke-width="1.33333" stroke-linecap="round" stroke-linejoin="round"/>
    <path d="M71.6832 1.53058C71.7124 1.47155 71.7576 1.42187 71.8135 1.38713C71.8695 1.35239 71.934 1.33398 71.9999 1.33398C72.0658 1.33398 72.1303 1.35239 72.1863 1.38713C72.2422 1.42187 72.2873 1.47155 72.3166 1.53058L73.8566 4.64991C73.958 4.85523 74.1078 5.03285 74.293 5.16755C74.4782 5.30225 74.6933 5.38999 74.9199 5.42325L78.3639 5.92725C78.4292 5.9367 78.4905 5.96423 78.5409 6.00671C78.5913 6.0492 78.6289 6.10495 78.6492 6.16765C78.6696 6.23036 78.6721 6.29752 78.6563 6.36154C78.6405 6.42556 78.6071 6.48388 78.5599 6.52991L76.0692 8.95525C75.905 9.11531 75.7821 9.3129 75.7111 9.531C75.6402 9.7491 75.6233 9.98117 75.6619 10.2072L76.2499 13.6339C76.2614 13.6991 76.2544 13.7663 76.2296 13.8277C76.2048 13.8891 76.1632 13.9423 76.1096 13.9812C76.056 14.0202 75.9926 14.0432 75.9265 14.0478C75.8604 14.0524 75.7944 14.0384 75.7359 14.0072L72.6572 12.3886C72.4544 12.2821 72.2287 12.2264 71.9996 12.2264C71.7704 12.2264 71.5448 12.2821 71.3419 12.3886L68.2639 14.0072C68.2055 14.0382 68.1395 14.0521 68.0735 14.0474C68.0076 14.0427 67.9442 14.0196 67.8908 13.9807C67.8373 13.9418 67.7958 13.8887 67.771 13.8274C67.7462 13.7661 67.7391 13.699 67.7506 13.6339L68.3379 10.2079C68.3767 9.98174 68.3599 9.74951 68.2889 9.53128C68.218 9.31304 68.095 9.11535 67.9306 8.95525L65.4399 6.53058C65.3923 6.4846 65.3586 6.42618 65.3425 6.36196C65.3265 6.29775 65.3289 6.23033 65.3493 6.16737C65.3697 6.10442 65.4074 6.04847 65.4581 6.0059C65.5088 5.96333 65.5704 5.93585 65.6359 5.92658L69.0792 5.42325C69.3061 5.39025 69.5215 5.30262 69.707 5.1679C69.8924 5.03319 70.0424 4.85543 70.1439 4.64991L71.6832 1.53058Z" fill="#FF6900" stroke="#FF6900" stroke-width="1.33333" stroke-linecap="round" stroke-linejoin="round"/>
</svg>
