<svg width="109" height="51" viewBox="0 0 109 51" fill="none" xmlns="http://www.w3.org/2000/svg">
<g clip-path="url(#clip0_40001394_670)">
<path fill-rule="evenodd" clip-rule="evenodd" d="M98.0308 2.02056L95.1741 2.04112V2.31487C95.1741 2.55259 95.198 2.58861 95.356 2.58861C95.8236 2.58861 96.3369 2.99538 96.414 3.42711C96.4487 3.62167 96.4106 3.79629 96.2655 4.10794C96.0534 4.56345 95.8756 4.785 93.6431 7.37623C89.5564 12.1194 88.5681 13.2517 88.54 13.2227C88.5265 13.2088 88.5193 11.3201 88.5239 9.0256C88.5343 3.87924 88.5816 3.47483 89.2367 2.92546C89.38 2.80538 89.657 2.65108 89.8524 2.58273C90.1449 2.48031 90.2118 2.42137 90.2312 2.24879L90.2549 2.03924H86.8144H83.3739V2.27712C83.3739 2.52818 83.3788 2.53195 83.879 2.66655C84.629 2.86832 84.9873 3.52341 85.0949 4.88985C85.1929 6.13441 85.1867 19.8831 85.0877 20.7199C84.9959 21.4973 84.7511 22.1179 84.4466 22.3457C84.3277 22.4347 84.0629 22.5588 83.8582 22.6215C83.5224 22.7244 83.486 22.7579 83.486 22.9628V23.1901L86.8329 23.2105L90.1798 23.2309L90.1564 22.9832C90.1352 22.7603 90.0983 22.7264 89.7856 22.6433C89.0997 22.4613 88.8326 22.1371 88.6416 21.2548C88.5499 20.8309 88.5272 20.145 88.5272 17.7931V14.86L89.1864 14.0807C90.103 12.997 90.0785 13.0144 90.292 13.3018C90.85 14.0529 95.4279 21.2022 96.1055 22.3805L96.571 23.1901L99.3454 23.2106L102.12 23.2312V22.9741C102.12 22.7296 102.101 22.7124 101.738 22.6217C100.772 22.3806 99.8295 21.5719 98.8337 20.1297C98.4845 19.6241 97.9007 18.7814 97.5361 18.2572C97.1717 17.7329 96.6696 16.9861 96.4206 16.5976C96.1715 16.2091 95.5103 15.2202 94.951 14.4001C94.3919 13.58 93.6886 12.5205 93.3883 12.0457C93.088 11.5708 92.7832 11.1117 92.7111 11.0254C92.639 10.9391 92.5233 10.7746 92.454 10.66L92.3281 10.4515L93.153 9.49688C97.6076 4.34181 98.9477 3.07441 100.388 2.65469C100.654 2.57723 100.886 2.49875 100.904 2.48031C100.921 2.46186 100.925 2.34626 100.912 2.22336L100.888 2L98.0308 2.02056ZM4.52072 2.32954C4.54238 2.60407 4.56433 2.62942 4.81774 2.67235C5.42254 2.77469 5.86601 3.3261 5.99917 4.14121C6.06161 4.52318 6.07879 6.95918 6.06154 12.9874L6.03779 21.3065L5.84002 21.7498C5.6374 22.2038 5.26734 22.5196 4.79436 22.6419C4.6482 22.6796 4.58823 22.7528 4.56456 22.9223C4.54693 23.0485 4.5491 23.1692 4.56941 23.1905C4.58972 23.2119 7.64247 23.2293 11.3533 23.2293C18.5305 23.2293 18.6925 23.2221 20.2419 22.8371C21.4958 22.5255 22.4149 21.9942 23.1729 21.1427C23.7161 20.5326 23.9281 20.16 24.1961 19.3444C24.3834 18.7746 24.4028 18.6114 24.4063 17.5786C24.4097 16.5977 24.3861 16.3594 24.2353 15.852C23.7781 14.3131 22.9655 13.3386 21.5283 12.6054L20.6945 12.1799L21.196 11.9176C21.5628 11.7258 21.8582 11.4796 22.2948 11.0017C23.2073 10.0029 23.5052 9.16671 23.5025 7.61144C23.4975 4.73422 22.1024 3.13987 18.8462 2.29015L18.062 2.08554L11.2797 2.05925L4.49741 2.03296L4.52072 2.32954ZM25.6305 2.07801C25.6102 2.09936 25.6078 2.21881 25.6252 2.34344C25.6528 2.5405 25.6955 2.57543 25.9538 2.61184C26.7358 2.72203 27.1652 3.38646 27.284 4.66979C27.3239 5.10065 27.3573 7.86376 27.3584 10.8101C27.3605 16.5147 27.3851 16.9997 27.7431 18.3634C27.9249 19.0558 28.3673 20.0849 28.7048 20.6004C29.6502 22.0445 31.4158 23.1259 33.4098 23.4824C34.1259 23.6105 34.5045 23.6298 35.6877 23.5985C37.3088 23.5555 37.9955 23.4038 39.1078 22.8429C40.9981 21.8895 42.1879 19.8725 42.5136 17.0685C42.5655 16.6214 42.5962 14.4318 42.5973 11.1039C42.5992 5.14029 42.6378 4.50364 43.0508 3.62198C43.3122 3.06405 43.7488 2.70116 44.2626 2.61483C44.4753 2.57904 44.5674 2.51696 44.6189 2.37483C44.657 2.26935 44.6693 2.15068 44.646 2.11113C44.6217 2.06985 43.492 2.03924 41.9894 2.03924H39.3751L39.3985 2.28881C39.4201 2.51947 39.4509 2.54529 39.8023 2.62801C40.7644 2.85451 41.3743 3.65094 41.5469 4.90626C41.5916 5.2307 41.6226 7.64048 41.6232 10.8292C41.6243 16.5594 41.5993 17.0525 41.2447 18.3141C40.8441 19.7394 39.8942 21.0285 38.85 21.5642C37.9694 22.016 37.3239 22.1539 36.0984 22.1519C34.3406 22.1491 33.3701 21.7838 32.4015 20.7603C31.7981 20.1224 31.5029 19.5775 31.1766 18.4987C30.7155 16.9741 30.7146 16.9582 30.7376 10.2709L30.7585 4.19749L30.9336 3.74135C31.166 3.13618 31.502 2.79494 32.0428 2.61506C32.4195 2.48973 32.4793 2.44264 32.4998 2.25507L32.5235 2.03924H29.0955C27.21 2.03924 25.6508 2.05666 25.6305 2.07801ZM45.8499 2.13703C45.8346 2.19118 45.7851 2.65925 45.7398 3.17722C45.6946 3.6952 45.5935 4.76883 45.5152 5.56315C45.4368 6.35746 45.3908 7.05681 45.4129 7.11732C45.4395 7.19015 45.5435 7.21927 45.7208 7.20357C45.9762 7.18089 45.9956 7.15789 46.1454 6.6994C46.5574 5.43875 47.5948 4.07349 48.5335 3.55692C49.3833 3.08917 49.9097 2.96352 51.1926 2.92208L52.3581 2.88433L52.3669 11.3106C52.3719 16.0734 52.3449 20.1103 52.3047 20.5958C52.2505 21.2504 52.1884 21.5521 52.0434 21.8635C51.8184 22.3466 51.6315 22.4912 51.0541 22.6291C50.6515 22.7251 50.6246 22.7459 50.6246 22.9608V23.1901L54.0462 23.2105L57.4679 23.2309L57.4444 22.9797C57.4232 22.7523 57.3878 22.7196 57.0708 22.635C56.3215 22.4352 55.9919 22.0437 55.7809 21.1031C55.6838 20.6702 55.668 19.3637 55.667 11.7121L55.6659 2.82406L55.8339 2.82571C55.9263 2.82665 56.4725 2.85945 57.0475 2.89862C57.8788 2.9552 58.2247 3.01634 58.7351 3.19677C60.3378 3.7634 61.3193 4.9185 62.0403 7.08648C62.0768 7.19627 62.1514 7.22303 62.3682 7.2042L62.6489 7.17979L62.6278 6.74814C62.5835 5.84019 62.3761 3.37775 62.2904 2.74259L62.2008 2.07848L54.0392 2.05855C47.5461 2.04262 45.872 2.0587 45.8499 2.13703ZM63.5078 2.30498C63.5078 2.5591 63.5223 2.57307 63.8377 2.62275C64.5009 2.72729 64.8804 3.19143 65.0888 4.15275C65.1365 4.37289 65.1875 6.95094 65.221 10.8292L65.2755 17.147L65.4694 17.9849C65.8401 19.5866 66.3837 20.6123 67.3825 21.5942C68.1035 22.303 68.5952 22.6173 69.579 22.9983C70.6963 23.431 71.2979 23.5446 72.7313 23.5937C74.7242 23.662 76.0546 23.375 77.2759 22.6138C78.5449 21.8227 79.357 20.6761 79.9318 18.8641C80.3366 17.5881 80.3826 16.9467 80.3986 12.3582C80.4195 6.32481 80.4738 4.72441 80.6801 4.05237C80.7921 3.68798 80.9403 3.40639 81.1406 3.17817C81.4436 2.83261 81.6088 2.73726 82.1603 2.58924C82.444 2.51311 82.4777 2.47944 82.4777 2.27162V2.03924H79.859H77.2403L77.2637 2.28614C77.2847 2.50746 77.3225 2.54239 77.6285 2.62354C78.5825 2.87672 79.0938 3.50292 79.3082 4.6807C79.469 5.56425 79.465 16.1955 79.3034 17.2426C79.0984 18.5705 78.5162 19.9108 77.8151 20.6689C76.8336 21.7301 75.2467 22.2929 73.5595 22.1783C72.5552 22.1101 71.9643 21.9533 71.2583 21.5673C70.1718 20.9733 69.4922 20.078 69.0049 18.5989C68.5747 17.2925 68.5668 17.1658 68.533 10.989C68.5115 7.05508 68.5277 5.09532 68.5857 4.63196C68.7328 3.4567 69.1011 2.88535 69.856 2.66097C70.2856 2.53328 70.3788 2.45582 70.3788 2.22587V2.03924H66.9433H63.5078V2.30498ZM12.2009 4.55489C11.517 4.70252 10.9278 5.3755 10.7847 6.17248C10.686 6.72201 10.8062 7.45408 11.0856 8.00495C11.3607 8.54741 12.2322 9.61351 12.9166 10.2448C13.5266 10.8075 14.4885 11.614 14.5497 11.614C14.6351 11.614 16.2815 10.1684 16.8184 9.6219C18.4838 7.9267 18.9045 6.32575 17.9821 5.19334C17.5723 4.69012 17.2041 4.5195 16.531 4.5206C15.8311 4.52177 15.3954 4.72418 14.9355 5.26162L14.6114 5.64045L14.1708 5.19161C13.5961 4.60598 12.9426 4.39479 12.2009 4.55489ZM12.3071 14.1268C11.8557 14.1929 11.3247 14.5551 11.0765 14.9664C10.6111 15.7374 10.6238 16.5238 11.1182 17.56C11.5321 18.4272 12.8505 19.8606 14.1516 20.858L14.5728 21.181L15.1711 20.7205C15.9459 20.1241 17.3148 18.6971 17.7207 18.0627C18.2534 17.2299 18.4279 16.7538 18.43 16.1267C18.4322 15.4867 18.2791 15.1161 17.8257 14.6638C17.3951 14.2343 17.1062 14.1107 16.5241 14.1069C15.8668 14.1026 15.3156 14.3707 14.874 14.9094L14.5632 15.2885L14.3597 14.9933C13.9362 14.3788 13.0736 14.0148 12.3071 14.1268ZM10.3695 27.9437C8.81913 28.1079 7.14805 28.8461 6.29919 29.7418C5.66168 30.4145 5.28825 31.0021 5.07249 31.6725C4.23438 34.2757 4.99399 36.8663 7.00212 38.2535C7.6179 38.6789 8.67177 39.2528 9.51063 39.6196C10.7944 40.1811 13.0222 41.3458 13.4926 41.7014C14.6767 42.5967 15.112 43.4326 15.112 44.8117C15.112 46.7627 14.0216 48.1267 12.1246 48.5487C11.4698 48.6944 10.2457 48.6548 9.58532 48.4666C8.73361 48.224 7.95346 47.7303 7.22281 46.9718C6.06639 45.7712 5.50805 44.6862 5.02865 42.7077C4.9515 42.3893 4.93275 42.371 4.70803 42.3938L4.46941 42.4181L4.44648 44.4978C4.43386 45.6417 4.44558 46.8728 4.47254 47.2337L4.52154 47.8899L5.14501 48.1925C8.22733 49.689 11.8872 50.0013 14.3294 48.9762C16.1704 48.2035 17.3501 46.8802 17.8119 45.0697C18.0164 44.2676 18.0359 42.8061 17.8519 42.0649C17.5224 40.7383 16.6857 39.5247 15.5714 38.7573C14.9021 38.2963 13.3437 37.4597 11.9379 36.8067C9.95852 35.8872 9.0151 35.3397 8.45735 34.7868C8.15204 34.4842 7.87033 34.1171 7.75778 33.8754C7.51252 33.3486 7.41079 32.4953 7.50564 31.7607C7.68257 30.3903 8.44167 29.4924 9.84672 28.9916C10.3452 28.8138 10.5741 28.7783 11.2284 28.7772C12.4636 28.7753 13.4226 29.1576 14.3398 30.018C15.1078 30.7385 15.9662 32.3578 16.3469 33.8047C16.4749 34.291 16.4784 34.2952 16.7463 34.2953H17.0165L16.9982 32.7453C16.9882 31.8927 16.9599 30.7338 16.9353 30.1698L16.8906 29.1445L15.8332 28.7336C15.2517 28.5077 14.3879 28.2403 13.9135 28.1393C12.906 27.9252 11.3541 27.8395 10.3695 27.9437ZM92.7703 28.0179C90.5892 28.3793 88.4892 29.5785 87.1314 31.2383C86.2389 32.3295 85.5751 33.6098 85.1367 35.0858C84.3116 37.8638 84.4115 40.6433 85.4305 43.2576C85.617 43.7362 85.9027 44.3671 86.0653 44.6597C87.4777 47.201 89.7566 48.8777 92.4642 49.3678C93.5337 49.5613 95.2181 49.5816 96.1077 49.4115C97.7567 49.0963 99.3502 48.3101 100.604 47.1931C101.499 46.3948 102.622 44.7504 103.096 43.5423C104.496 39.9744 104.257 35.8513 102.465 32.6549C101.459 30.859 99.7743 29.3731 97.8321 28.5673C96.7212 28.1064 96.1717 28.0053 94.614 27.9751C93.8335 27.9599 93.0039 27.9792 92.7703 28.0179ZM19.6702 28.3698C19.6375 28.413 19.5876 28.8368 19.5595 29.3116C19.5314 29.7864 19.4618 30.5987 19.4048 31.1167C19.3478 31.6347 19.2785 32.3498 19.2508 32.706L19.2004 33.3534H19.4905C19.7776 33.3534 19.7823 33.3484 19.9581 32.8629C20.5192 31.3121 21.3573 30.1959 22.2965 29.7484C22.9877 29.419 23.8746 29.2508 24.9704 29.2412L25.904 29.2331V38.1016C25.904 46.3428 25.8947 47.0015 25.7726 47.416C25.5614 48.1334 25.097 48.5789 24.5604 48.5789C24.3501 48.5789 24.1705 48.8699 24.2487 49.084C24.2884 49.1928 24.6752 49.2067 27.6567 49.2067H31.0199V48.9421C31.0199 48.692 31.0026 48.6745 30.707 48.6249C29.9552 48.4985 29.4636 47.942 29.2972 47.0288C29.2039 46.517 29.1851 42.9283 29.2186 32.0273L29.2274 29.1708L30.2917 29.2161C32.1338 29.2946 33.1463 29.6817 33.9605 30.6192C34.4867 31.225 34.8025 31.7871 35.1662 32.7648C35.2947 33.1101 35.4393 33.3891 35.4877 33.3848C35.5361 33.3805 35.6642 33.3716 35.7725 33.3652L35.9695 33.3534L35.9317 32.6275C35.911 32.2282 35.8143 31.0981 35.717 30.1161L35.5399 28.3306L33.0372 28.3174C25.1823 28.2761 19.7252 28.2975 19.6702 28.3698ZM36.8453 28.534C36.8453 28.7515 36.8781 28.787 37.1627 28.8764C37.3373 28.9313 37.5658 29.0402 37.6706 29.1185C37.9381 29.3184 38.2368 29.9343 38.3325 30.4837C38.3853 30.7867 38.4146 32.7193 38.4163 36.0166C38.419 41.2632 38.4669 42.6836 38.6769 43.7522C38.9179 44.9789 39.4968 46.2553 40.1893 47.0872C41.1347 48.2228 42.9033 49.1587 44.6498 49.4475C45.46 49.5814 47.1965 49.5678 47.936 49.4217C50.3334 48.9479 52.156 47.2704 52.8163 44.9295C53.2144 43.5184 53.2174 43.4668 53.2709 36.9636C53.3203 30.973 53.3235 30.8743 53.4838 30.4221C53.8052 29.515 54.1869 29.0884 54.831 28.9166C55.1526 28.8308 55.1804 28.804 55.1804 28.5809V28.3384L52.7158 28.3149L50.2512 28.2914L50.2284 28.5375C50.2061 28.7788 50.2159 28.7868 50.7276 28.9502C51.5691 29.2188 51.9353 29.6589 52.2039 30.7243C52.3326 31.2348 52.3421 31.6563 52.3379 36.6889C52.3331 42.3423 52.3033 43.0066 52.0003 44.1794C51.6255 45.6309 50.6635 46.9326 49.5417 47.5061C48.6757 47.9489 48.1654 48.0592 47.0024 48.0554C45.2526 48.0497 44.3766 47.7117 43.372 46.655C42.4166 45.6502 41.9545 44.499 41.777 42.6825C41.7315 42.2163 41.7002 39.6139 41.701 36.347C41.7023 30.3526 41.7109 30.2069 42.1007 29.588C42.3396 29.2084 42.5764 29.0379 43.0328 28.9161C43.3606 28.8286 43.3802 28.8083 43.3802 28.5573V28.2914H40.1127H36.8453V28.534ZM56.3011 28.3171C56.2804 28.3389 56.2633 28.454 56.2633 28.5729C56.2633 28.7531 56.3037 28.7982 56.5061 28.8441C57.1801 28.997 57.5882 29.4098 57.7894 30.1421C57.8972 30.5348 57.9076 31.4447 57.8894 38.9321L57.8691 47.2839L57.6909 47.6982C57.4664 48.2201 57.1502 48.4569 56.4687 48.6132C56.301 48.6517 56.2633 48.7029 56.2633 48.8928C56.2633 49.0709 56.3041 49.136 56.4379 49.1713C56.5339 49.1966 58.7268 49.2027 61.3111 49.1849C66.5228 49.1489 66.4617 49.1543 68.1756 48.5769C69.2101 48.2284 69.768 47.9503 70.5983 47.3693C71.8982 46.46 73.0193 45.056 73.6447 43.5544C74.3088 41.9601 74.5611 40.6187 74.5595 38.6902C74.5577 36.5592 74.2899 35.1513 73.5949 33.6179C72.9064 32.0991 72.1148 31.1117 70.8767 30.2277C69.7431 29.4184 68.9892 29.0518 67.7817 28.7229C66.2731 28.312 66.2498 28.3105 61.137 28.2934C58.498 28.2846 56.3219 28.2953 56.3011 28.3171ZM78.2767 28.3109L76.2789 28.3332V28.5599C76.2789 28.7596 76.3203 28.8016 76.6252 28.9107C77.4095 29.1915 77.7862 29.7761 77.9192 30.9185C78.0143 31.7348 78.0207 45.2904 77.9266 46.397C77.8101 47.7659 77.5794 48.1883 76.7559 48.54C76.3666 48.7062 76.3162 48.7529 76.3162 48.9477V49.1675L79.5366 49.188C82.9659 49.2097 82.971 49.2092 82.8787 48.8381C82.8507 48.7255 82.7353 48.6437 82.5116 48.5779C82.061 48.4453 81.6227 48.0296 81.4567 47.5774C81.3274 47.2254 81.3201 46.7553 81.3201 38.8079C81.3201 31.9352 81.3386 30.3433 81.4223 30.0409C81.5747 29.4896 81.9526 29.0704 82.4439 28.9078C82.6679 28.8335 82.8516 28.7351 82.8522 28.689C82.8527 28.643 82.8735 28.5258 82.8982 28.4287L82.9432 28.2521L81.6089 28.2704C80.875 28.2804 79.3755 28.2987 78.2767 28.3109ZM61.2109 38.749L61.2299 48.3042L62.6116 48.3273C65.0882 48.3687 66.1689 48.1876 67.4354 47.519C68.9134 46.7389 69.73 45.6202 70.4787 43.3498C70.9156 42.0249 71.0768 40.8176 71.0798 38.8471C71.0827 36.9462 70.9924 36.0402 70.672 34.757C70.2742 33.1637 69.7711 32.1328 68.9224 31.1713C68.2239 30.3801 67.4836 29.8801 66.5766 29.5872C65.5147 29.2443 65.0723 29.1952 63.0407 29.1945L61.1919 29.1939L61.2109 38.749ZM91.0024 34.4475C89.9953 34.8399 89.4022 35.74 89.3963 36.8851C89.3895 38.1944 90.1033 39.5152 91.605 40.972C92.7373 42.0705 94.1939 43.3206 94.3414 43.3206C94.417 43.3206 94.5428 43.2454 94.6211 43.1535C94.6994 43.0617 95.0322 42.7712 95.3608 42.5082C95.6895 42.2451 96.4315 41.5344 97.0098 40.9289C98.5846 39.2804 99.1215 38.3223 99.1879 37.0423C99.231 36.2116 99.0573 35.6635 98.5705 35.0945C98.0903 34.5332 97.6276 34.3372 96.7799 34.3356C96.2074 34.3346 96.0451 34.3653 95.686 34.5423C95.2834 34.7405 94.677 35.2879 94.3944 35.7079C94.2908 35.862 94.2534 35.8789 94.2204 35.7865C94.1314 35.5373 93.3268 34.7398 92.9709 34.5481C92.4549 34.27 91.5734 34.225 91.0024 34.4475ZM8.76379 51.3937C8.76379 51.4311 8.99068 51.4788 9.26791 51.4998C9.82394 51.5419 10.6093 51.8501 11.2336 52.271C11.7238 52.6016 11.6648 52.6447 11.1349 52.3431C10.2591 51.8447 8.50045 51.4009 7.87713 51.5211C7.38854 51.6152 6.12203 52.0049 5.64569 52.2076C5.389 52.3169 5.17891 52.391 5.17891 52.3722C5.17891 52.2969 6.29037 51.7939 6.70256 51.6826C7.19899 51.5485 7.3084 51.4827 7.03468 51.4827C6.24489 51.4827 4.46314 52.5267 3.4932 53.558C2.95069 54.1347 2.49026 54.9399 2.49026 55.312C2.49026 55.4186 2.42237 55.6213 2.33939 55.7625C2.25642 55.9035 2.17427 56.1549 2.15672 56.3211C2.13924 56.4872 2.08734 56.7822 2.04148 56.9764C1.9305 57.4461 2.05014 58.6006 2.30586 59.5278C2.89632 61.6689 4.28143 63.149 6.2245 63.7151C9.73394 64.7375 13.1801 62.9317 14.2167 59.5271C14.3543 59.075 14.384 58.7969 14.3846 57.9574C14.3852 57.0569 14.3611 56.8588 14.1796 56.2701C13.7673 54.932 13.0777 53.8117 12.0108 52.7468C11.1644 51.9019 9.94963 51.3257 9.01503 51.3257C8.87686 51.3257 8.76379 51.3563 8.76379 51.3937ZM7.9911 51.7771C7.97205 51.8094 8.15794 52.1714 8.40425 52.5815C8.83399 53.297 9.51063 54.6293 9.51063 54.76C9.51063 54.7945 8.32598 54.8217 6.87799 54.8204C4.60235 54.8185 4.15931 54.8376 3.61098 54.9618C3.26213 55.0407 2.93441 55.1422 2.8828 55.1872C2.73149 55.3192 2.77473 55.4292 2.95704 55.376C3.69911 55.1593 6.25027 54.8677 6.32294 54.9913C6.36073 55.0555 5.86527 55.9235 4.91595 57.4564C3.92466 59.057 3.18535 60.607 3.31112 60.8209C3.3531 60.8922 3.50508 60.6402 3.78798 60.0301C4.20554 59.1297 5.07973 57.6309 5.1465 57.701C5.16622 57.7217 5.47907 58.3706 5.84181 59.143C6.64901 60.862 7.90618 63.0488 8.36325 63.5292C8.65564 63.8364 8.53293 63.4559 8.10387 62.7246C7.7011 62.0382 7.04603 60.741 7.04603 60.6299C7.04603 60.606 7.62581 60.5859 8.33435 60.5849C10.6098 60.582 13.4689 60.2735 13.4689 60.0309C13.4689 59.937 13.491 59.9356 12.0126 60.1169C11.3143 60.2024 10.5917 60.27 10.4069 60.267C9.7441 60.2564 9.74343 60.2664 10.4928 59.0558C11.8176 56.9156 12.2452 56.0885 12.7349 54.7198C12.9552 54.1038 12.8625 53.933 12.6179 54.5042C12.1058 55.7003 11.1999 57.4476 11.0923 57.447C11.0645 57.4468 10.9774 57.2791 10.8987 57.0742C10.3747 55.7085 8.65549 52.3543 8.2439 51.8947C8.07138 51.702 8.043 51.6888 7.9911 51.7771ZM6.91915 51.9561C5.62531 52.3075 4.56067 52.9069 3.91794 53.646C3.57775 54.0371 3.11866 54.7602 3.17452 54.8169C3.18841 54.831 3.46863 54.7859 3.79724 54.7168C4.27224 54.6168 4.89422 54.591 6.83169 54.5911L9.26873 54.5912L9.12959 54.2501C8.79515 53.4302 7.75494 51.7931 7.57495 51.8034C7.50997 51.8071 7.2149 51.8758 6.91915 51.9561ZM9.02197 52.7642C9.68024 53.9259 9.9034 54.3817 10.558 55.9022C10.8333 56.5415 11.0883 57.0674 11.1248 57.0709C11.2166 57.0795 12.311 54.8363 12.4634 54.3272L12.5877 53.9119L12.3862 53.6341C11.7318 52.7327 9.90161 51.7966 8.79343 51.7966H8.47363L9.02197 52.7642ZM12.8456 54.9547C12.5493 55.853 11.7281 57.4724 10.9385 58.715C10.4818 59.4339 10.1081 60.0483 10.1081 60.0804C10.1081 60.1459 10.8043 60.0907 12.4606 59.894L13.5807 59.761L13.6778 59.4496C13.9074 58.7133 13.9109 57.1027 13.6852 56.0739C13.5931 55.6542 13.3193 55.0095 13.1098 54.7193L12.9817 54.5419L12.8456 54.9547ZM4.95486 55.2137C4.56463 55.2712 3.89359 55.3661 3.46363 55.4244L2.6819 55.5305L2.58974 55.8649C2.42424 56.4657 2.34224 57.602 2.41901 58.2321C2.49526 58.8585 2.71566 59.6446 2.95585 60.1471L3.10215 60.4531L3.45362 59.7547C4.01092 58.6471 4.92902 57.0127 5.52583 56.0655C5.82793 55.5861 6.07513 55.1711 6.07513 55.1433C6.07513 55.0732 5.78207 55.0917 4.95486 55.2137ZM25.0451 55.3995C24.5979 55.4982 24.312 55.7073 24.0958 56.094C23.905 56.4349 23.8875 56.5331 23.8875 57.2572C23.8875 57.9989 23.9015 58.0722 24.1124 58.4344C24.5466 59.1801 25.4405 59.3984 26.2468 58.9558C26.7376 58.6864 26.9996 58.2163 27.0476 57.519C27.1357 56.2393 26.6554 55.4891 25.6799 55.3826C25.4745 55.3602 25.1888 55.3678 25.0451 55.3995ZM36.7135 55.4161C35.7743 55.541 35.1897 56.6079 35.421 57.7751C35.5923 58.6397 36.0842 59.0808 36.9594 59.1546C37.563 59.2055 37.9656 59.0728 37.9656 58.8229C37.9656 58.6529 37.9473 58.6456 37.6855 58.7094C36.5274 58.9921 35.8744 58.4763 35.8744 57.279C35.8744 56.0079 36.5863 55.4731 37.7872 55.8419C37.9594 55.8948 38.1009 55.6746 37.9778 55.5452C37.8712 55.4331 37.1439 55.3589 36.7135 55.4161ZM51.4431 55.408C50.9532 55.4798 50.5938 55.7653 50.3821 56.2511C50.2178 56.6284 50.1999 56.7577 50.2278 57.3698C50.255 57.9665 50.2896 58.1134 50.4793 58.4352C50.758 58.9081 51.2078 59.1739 51.7293 59.1739C52.8257 59.1739 53.4253 58.4926 53.4253 57.247C53.4253 56.4715 53.1284 55.8212 52.6502 55.5488C52.4469 55.4331 51.7932 55.3569 51.4431 55.408ZM58.3545 55.3995C57.9073 55.4982 57.6215 55.7073 57.4052 56.094C57.2147 56.4343 57.1969 56.5336 57.1969 57.2511C57.1969 57.9654 57.2153 58.0688 57.4016 58.4019C57.6753 58.891 58.0196 59.1041 58.618 59.1546C59.0324 59.1896 59.1514 59.1666 59.5097 58.9824C60.0449 58.7072 60.2976 58.2836 60.3521 57.5699C60.4529 56.2505 59.9794 55.4907 58.9893 55.3826C58.784 55.3602 58.4983 55.3678 58.3545 55.3995ZM100.962 55.4417C100.284 55.6367 99.8793 56.3212 99.8793 57.2716C99.8793 58.5055 100.598 59.2553 101.682 59.152C102.219 59.1009 102.535 58.915 102.826 58.4804C103.029 58.1766 103.051 58.0814 103.075 57.3855C103.1 56.6747 103.088 56.5941 102.891 56.1916C102.737 55.8776 102.599 55.714 102.381 55.5912C101.983 55.3664 101.427 55.3079 100.962 55.4417ZM17.5704 55.4393C17.5533 55.4572 17.5489 56.2872 17.5606 57.2837L17.582 59.0954H17.7631C17.9393 59.0954 17.9448 59.0767 17.9658 58.4125L17.9874 57.7294L18.5892 57.6393C18.9202 57.5897 19.2861 57.4837 19.4023 57.4037C19.7877 57.1383 19.9204 56.5247 19.708 55.9904C19.5441 55.5783 19.1327 55.4107 18.2799 55.4085C17.9068 55.4076 17.5875 55.4215 17.5704 55.4393ZM20.7134 57.2424V59.0954H20.9374H21.1615V58.3498V57.6043L21.5536 57.6059L21.9457 57.6076L22.3454 58.3515C22.7063 59.0234 22.766 59.0954 22.9615 59.0954C23.0806 59.0954 23.178 59.0774 23.178 59.0555C23.178 59.0336 22.9931 58.6791 22.7672 58.2679C22.5413 57.8567 22.3577 57.495 22.3593 57.4642C22.3609 57.4333 22.4701 57.337 22.6021 57.2501C23.1382 56.8969 23.1256 55.9404 22.5805 55.6072C22.3729 55.4804 22.1537 55.4415 21.5162 55.4185L20.7134 55.3894V57.2424ZM28.0325 57.2426V59.0954H28.7089C29.6428 59.0954 30.0091 58.9845 30.387 58.5873C30.714 58.2437 30.8705 57.8047 30.8705 57.2306C30.8705 56.7641 30.6727 56.1684 30.4429 55.9423C30.0369 55.5431 29.7704 55.4546 28.8727 55.4212L28.0325 55.3898V57.2426ZM31.7667 56.7827C31.7667 58.3381 31.8156 58.5546 32.2439 58.8979C32.4517 59.0644 32.619 59.1216 32.98 59.1494C33.612 59.1981 34.0465 58.9724 34.2873 58.4705C34.4423 58.1477 34.4554 58.0146 34.4554 56.7636V55.4068H34.2313H34.0073V56.7841C34.0073 58.3286 33.9552 58.5462 33.5503 58.6945C33.0406 58.8812 32.4202 58.711 32.2891 58.3485C32.2482 58.2357 32.2148 57.5277 32.2148 56.7751V55.4068H31.9908H31.7667V56.7827ZM38.4883 55.603C38.4883 55.7948 38.5008 55.7992 39.0485 55.7992H39.6086V57.4473V59.0954H39.8327H40.0567V57.4473V55.7992H40.6169C41.1645 55.7992 41.177 55.7948 41.177 55.603V55.4068H39.8327H38.4883V55.603ZM43.4083 55.4571C43.3928 55.4942 43.3802 56.3191 43.3802 57.2903V59.0562L43.5856 59.081L43.791 59.1059V58.4056V57.7053L44.3322 57.6525C44.6298 57.6233 44.988 57.537 45.1282 57.4606C45.8006 57.0939 45.8384 55.9503 45.19 55.5887C44.9272 55.4421 43.4597 55.3337 43.4083 55.4571ZM46.6041 55.4591C46.5767 55.4878 46.5543 56.3178 46.5543 57.3034V59.0954H46.7784H47.0024V58.2321V57.3688H47.8899C48.9327 57.3688 48.8669 57.2959 48.8685 58.4534C48.8695 59.1667 48.8737 59.1842 49.0376 59.1598L49.2056 59.1347L49.2256 57.2707L49.2457 55.4068H49.0203H48.7949V56.1916V56.9764H47.8986H47.0024V56.1916C47.0024 55.4217 46.9991 55.4068 46.8282 55.4068C46.7323 55.4068 46.6315 55.4303 46.6041 55.4591ZM53.9481 55.603C53.9481 55.7948 53.9606 55.7992 54.5082 55.7992H55.0684V57.4473V59.0954H55.2435C55.4163 59.0954 55.4193 59.0811 55.4676 58.0235C55.4945 57.434 55.5165 56.6923 55.5165 56.3754V55.7992H56.0393C56.5471 55.7992 56.5621 55.7936 56.5621 55.603V55.4068H55.2551H53.9481V55.603ZM62.1634 55.5272C61.7523 55.7212 61.4244 56.1057 61.3026 56.5372C60.9724 57.7055 61.367 58.7521 62.2545 59.0619C62.6537 59.2012 63.662 59.1882 63.9132 59.0405C64.0093 58.9839 64.0403 58.7926 64.0669 58.0908L64.1001 57.2119H63.5052C62.9656 57.2119 62.9103 57.2261 62.9103 57.3645C62.9103 57.4909 62.9712 57.5213 63.265 57.5411L63.6198 57.565V58.1536V58.7422H63.0089C62.5083 58.7422 62.3608 58.7131 62.192 58.5804C61.7743 58.2524 61.6796 58.0336 61.6566 57.3435C61.6383 56.7932 61.6596 56.657 61.8063 56.3878C62.0614 55.9195 62.5186 55.6954 63.097 55.7551C63.3435 55.7806 63.6328 55.8217 63.74 55.8465C63.8831 55.8797 63.9481 55.8551 63.9851 55.7538C64.0713 55.5179 63.9036 55.4523 63.1519 55.4277C62.6123 55.4101 62.3574 55.4357 62.1634 55.5272ZM65.0762 57.2511V59.0954H65.3002H65.5243V58.3581V57.6207L65.8072 57.5924C65.9628 57.5768 66.1398 57.574 66.2005 57.5864C66.2611 57.5986 66.4898 57.9432 66.7088 58.352C67.0936 59.0709 67.1154 59.0954 67.3697 59.0954C67.6321 59.0954 67.6324 59.095 67.5119 58.9017C67.1941 58.3921 66.7192 57.5377 66.7192 57.4756C66.7192 57.4373 66.7922 57.3712 66.8814 57.3286C67.3636 57.0982 67.5363 56.1727 67.1729 55.7661C66.9297 55.4941 66.5914 55.4077 65.767 55.4072L65.0762 55.4068V57.2511ZM68.6727 57.1159C67.9012 59.2263 67.945 59.065 68.1295 59.1157C68.3167 59.1671 68.3553 59.1144 68.6182 58.4479L68.8272 57.9182H69.4818C69.929 57.9182 70.162 57.9506 70.2173 58.0206C70.2618 58.0769 70.3753 58.3506 70.4697 58.6288C70.6098 59.0418 70.6724 59.1363 70.8106 59.1437C70.9037 59.1486 70.9962 59.1249 71.0161 59.0911C71.0361 59.0572 70.8372 58.4528 70.5742 57.7479C70.3112 57.043 70.0169 56.2279 69.9202 55.9365C69.7555 55.44 69.7304 55.4069 69.5201 55.409C69.2972 55.4112 69.292 55.4215 68.6727 57.1159ZM71.7231 57.2511V59.0954H71.9472H72.1712V58.4005V57.7055L72.6991 57.659C73.5853 57.581 74.001 57.1999 74.001 56.4656C74.001 56.1069 73.9686 56.0094 73.7812 55.8038C73.5003 55.4958 73.1886 55.4078 72.3766 55.4072L71.7231 55.4068V57.2511ZM74.9346 57.2459V59.0954H75.1586H75.3827V58.2321V57.3688H76.2789H77.1751V58.2321V59.0954H77.3992H77.6232V57.2511V55.4068H77.3992H77.1751V56.1916V56.9764H76.2816H75.388L75.3667 56.2112L75.3453 55.446L75.1399 55.4212L74.9346 55.3963V57.2459ZM78.3701 55.5027C78.3701 55.5555 78.6128 56.0587 78.9094 56.621L79.4489 57.6435L79.4768 58.3695C79.504 59.0756 79.5097 59.0954 79.6843 59.0954C79.86 59.0954 79.8637 59.0812 79.8637 58.414V57.7326L80.3774 56.7462C81.1512 55.2604 81.1006 55.4068 80.8405 55.4068C80.6333 55.4068 80.5901 55.4622 80.2418 56.1746C79.6465 57.3924 79.7359 57.38 79.1853 56.3219C78.794 55.5699 78.6789 55.4068 78.5396 55.4068C78.4463 55.4068 78.3701 55.4499 78.3701 55.5027ZM83.5922 55.6362C83.3071 55.9358 83.296 56.3486 83.5621 56.7602L83.7504 57.0513L83.3656 57.4411C82.9846 57.8269 82.9811 57.835 83.0171 58.2285C83.0578 58.6736 83.212 58.9047 83.5769 59.067C83.9888 59.2502 84.5021 59.2024 84.9842 58.9359L85.4146 58.698L85.612 58.8967C85.7442 59.0298 85.8933 59.0954 86.0636 59.0954H86.3177L85.9989 58.754L85.6801 58.4126L85.9087 57.9398C86.1872 57.3638 86.1981 57.2119 85.9607 57.2119C85.8207 57.2119 85.758 57.2837 85.658 57.5588C85.4505 58.13 85.3968 58.1338 84.8604 57.6153L84.3838 57.1548L84.6359 56.9319C85.3744 56.2789 85.1349 55.4068 84.217 55.4068C83.8674 55.4068 83.7801 55.4388 83.5922 55.6362ZM88.1575 55.5389C88.1596 55.6173 88.4233 56.4408 88.7435 57.3688L89.3259 59.0562H89.5696H89.8133L90.1703 57.9967C90.3667 57.4139 90.6456 56.5928 90.7902 56.172L91.053 55.4068H90.8463C90.6487 55.4068 90.6241 55.4524 90.2862 56.4467C90.0919 57.0186 89.8618 57.7073 89.7749 57.977C89.6062 58.5011 89.5384 58.5726 89.477 58.291C89.4558 58.1939 89.2374 57.514 88.9914 56.7802C88.5769 55.5429 88.5302 55.4442 88.3491 55.4212C88.2004 55.4023 88.1547 55.4304 88.1575 55.5389ZM91.7386 57.2511V59.0954H91.9627H92.1867V57.2511V55.4068H91.9627H91.7386V57.2511ZM93.307 57.2426V59.0954L93.9978 59.0949C94.7959 59.0945 95.1877 59.0012 95.5296 58.73C95.9258 58.4158 96.1024 57.9741 96.1052 57.2903C96.1082 56.5759 96.0545 56.3555 95.7996 56.0372C95.4408 55.5891 95.0856 55.4568 94.1472 55.4215L93.307 55.3898V57.2426ZM97.1159 57.2534V59.1L98.1055 59.0781C99.0383 59.0574 99.0951 59.0471 99.0951 58.8992C99.0951 58.754 99.0383 58.7406 98.335 58.72C97.5751 58.6977 97.5748 58.6975 97.5316 58.4845C97.5078 58.3673 97.5039 58.0948 97.5227 57.8789C97.5416 57.6631 97.5586 57.46 97.5605 57.4277C97.5625 57.3953 97.9024 57.3688 98.3161 57.3688C99.0533 57.3688 99.0677 57.3654 99.0443 57.1922C99.0217 57.0257 98.9781 57.0135 98.2736 56.9764L97.5267 56.9372L97.5048 56.3709L97.4829 55.8048L98.2517 55.7823C98.9846 55.761 99.0215 55.7517 99.0443 55.5834C99.068 55.408 99.0616 55.4068 98.0921 55.4068H97.1159V57.2534ZM18.0434 55.7727C17.9779 55.8004 17.95 56.0353 17.95 56.5601V57.3081L18.4818 57.2764C18.9512 57.2486 19.0344 57.2194 19.1914 57.0278C19.3976 56.7758 19.4299 56.3178 19.2594 56.062C19.1016 55.8252 18.3444 55.645 18.0434 55.7727ZM21.2113 55.773C21.1839 55.8018 21.1615 56.1373 21.1615 56.5186V57.2119H21.6061C22.1313 57.2119 22.384 57.1083 22.4976 56.8464C22.7034 56.3716 22.5261 55.9346 22.0742 55.8026C21.7594 55.7108 21.286 55.6946 21.2113 55.773ZM25.0824 55.7782C24.5764 55.9113 24.2973 56.4441 24.2999 57.2723C24.3029 58.2604 24.7018 58.7809 25.4558 58.7809C25.9057 58.7809 26.2513 58.5828 26.4415 58.2159C26.6319 57.8488 26.6311 56.6519 26.4402 56.2835C26.2247 55.8675 25.6109 55.6392 25.0824 55.7782ZM43.8227 55.8254C43.8017 55.8829 43.7944 56.2273 43.8064 56.5906L43.8283 57.2511H44.3389C44.8058 57.2511 44.8649 57.2323 45.0298 57.0309C45.2485 56.7636 45.2722 56.2897 45.0793 56.0394C44.8683 55.7658 43.9045 55.6016 43.8227 55.8254ZM51.2595 55.8582C50.4811 56.2668 50.4403 58.1364 51.1991 58.6226C51.7112 58.9507 52.4974 58.7575 52.788 58.2321C52.9101 58.0113 52.9399 57.819 52.9399 57.2511C52.9399 56.6832 52.9101 56.4909 52.788 56.2701C52.6039 55.9372 52.2225 55.7209 51.8196 55.7209C51.6553 55.7209 51.4032 55.7827 51.2595 55.8582ZM58.2051 55.8582C57.8173 56.0618 57.6072 56.5517 57.6093 57.2481C57.6123 58.2619 58.0037 58.7809 58.7653 58.7809C59.5268 58.7809 59.9183 58.2619 59.9213 57.2481C59.9242 56.2739 59.5056 55.7209 58.7653 55.7209C58.601 55.7209 58.3489 55.7827 58.2051 55.8582ZM65.5803 55.7647C65.5495 55.7981 65.5243 56.1373 65.5243 56.5186V57.2119L65.991 57.2107C66.5899 57.2092 66.8124 57.0913 66.8979 56.7301C66.9844 56.365 66.9094 56.0664 66.6942 55.9182C66.5018 55.7857 65.6672 55.6708 65.5803 55.7647ZM72.2272 55.7649C72.1965 55.7982 72.1712 56.1589 72.1712 56.5667V57.3081L72.703 57.2764C73.1724 57.2486 73.2556 57.2194 73.4125 57.0278C73.7089 56.6657 73.6118 56.0634 73.2273 55.8788C72.9815 55.7609 72.3026 55.6835 72.2272 55.7649ZM83.9852 55.7744C83.9312 55.7971 83.8559 55.9019 83.8177 56.0074C83.7371 56.23 83.8969 56.7158 84.0742 56.7873C84.3684 56.906 84.8066 56.2762 84.6474 55.9636C84.536 55.745 84.2497 55.6632 83.9852 55.7744ZM100.962 55.8642C100.552 56.0688 100.384 56.4054 100.351 57.0885C100.299 58.1841 100.692 58.7815 101.466 58.7815C102.295 58.7815 102.643 58.3278 102.642 57.2459C102.642 56.5502 102.516 56.1885 102.181 55.9311C101.895 55.7107 101.332 55.6799 100.962 55.8642ZM28.4806 57.282V58.7815L28.798 58.7796C29.9393 58.7727 30.4972 58.1603 30.4067 57.0137C30.3702 56.5513 30.2263 56.2791 29.8713 56.0006C29.7142 55.8774 29.5252 55.8324 29.073 55.8108L28.4806 55.7825V57.282ZM93.7551 57.3017V58.8042L94.2848 58.7576C95.2467 58.6729 95.6257 58.2823 95.6843 57.3154C95.7449 56.3149 95.2695 55.7992 94.2864 55.7992H93.7551V57.3017ZM69.2341 56.7355C69.0832 57.1635 68.9598 57.5342 68.9598 57.5591C68.9598 57.5839 69.2118 57.6043 69.5199 57.6043C69.828 57.6043 70.08 57.5827 70.08 57.5562C70.08 57.5058 69.5546 56.0094 69.5254 55.9762C69.516 55.9657 69.3849 56.3074 69.2341 56.7355ZM6.76978 56.3453C6.48732 56.5262 6.33989 56.9707 6.44026 57.3385C6.56521 57.7963 6.74013 58.0456 7.41983 58.734L8.10663 59.4298L8.81666 58.6936C9.20726 58.2887 9.58965 57.8162 9.66643 57.6435C9.99848 56.8972 9.69563 56.1973 9.03893 56.1933C8.71711 56.1914 8.51456 56.2828 8.23532 56.556L8.04285 56.7442L7.89939 56.5776C7.5592 56.1826 7.15381 56.0992 6.76978 56.3453ZM14.0664 57.6349C14.0664 58.6199 13.7476 60.0189 13.3243 60.8906C13.0731 61.4082 13.2793 61.1979 13.5835 60.6263C13.9425 59.9516 14.131 59.3635 14.2205 58.6387C14.2985 58.0073 14.2455 57.0549 14.1324 57.0549C14.0961 57.0549 14.0664 57.3158 14.0664 57.6349ZM83.7025 57.6357C83.3872 57.967 83.3621 58.3053 83.632 58.5888C83.8637 58.8324 84.3171 58.8447 84.7883 58.62L85.1198 58.462L84.6036 57.9154C84.3197 57.6148 84.058 57.3688 84.022 57.3688C83.986 57.3688 83.8422 57.4889 83.7025 57.6357ZM4.66822 58.7226C4.21682 59.5096 3.64048 60.7087 3.56826 61.0108C3.52024 61.2121 3.56961 61.2874 4.10935 61.8366C5.01028 62.7534 6.32958 63.3804 7.67593 63.532L8.17041 63.5876L7.76675 62.97C6.8414 61.5541 5.51044 59.0821 5.26869 58.3302C5.22358 58.19 5.1536 58.0751 5.11312 58.0751C5.07264 58.0751 4.87248 58.3666 4.66822 58.7226ZM2.78922 60.4694C3.12187 61.2849 3.89463 62.2605 4.62789 62.7906C5.28952 63.269 6.26042 63.635 7.1954 63.7586C7.41162 63.7872 7.29182 63.7326 6.85932 63.6055C5.13224 63.0978 3.77559 62.0579 2.98341 60.6346C2.82455 60.3492 2.68347 60.1157 2.6698 60.1157C2.65613 60.1157 2.70983 60.2748 2.78922 60.4694ZM12.9088 60.4013C12.2582 60.5799 9.42968 60.822 7.99453 60.822C7.34448 60.822 7.33551 60.8246 7.38727 60.9986C7.45336 61.2205 7.90946 62.0766 8.41396 62.9254L8.80113 63.577L9.17455 63.5248C10.4546 63.3462 11.74 62.638 12.5844 61.6461C12.8785 61.3005 13.3473 60.4702 13.3075 60.3652C13.2936 60.3288 13.1142 60.3449 12.9088 60.4013Z" fill="#440413"/>
</g>
<defs>
<clipPath id="clip0_40001394_670">
<rect width="109" height="51" fill="white"/>
</clipPath>
</defs>
</svg>
