<svg width="109" height="50" viewBox="0 0 109 50" fill="none" xmlns="http://www.w3.org/2000/svg">
<g clip-path="url(#clip0_40001394_843)">
<path fill-rule="evenodd" clip-rule="evenodd" d="M98.0308 1.02056L95.1741 1.04112V1.31487C95.1741 1.55259 95.198 1.58861 95.356 1.58861C95.8236 1.58861 96.3369 1.99538 96.414 2.42711C96.4487 2.62167 96.4106 2.79629 96.2655 3.10794C96.0534 3.56345 95.8756 3.785 93.6431 6.37623C89.5564 11.1194 88.5681 12.2517 88.54 12.2227C88.5265 12.2088 88.5193 10.3201 88.5239 8.0256C88.5343 2.87924 88.5816 2.47483 89.2367 1.92546C89.38 1.80538 89.657 1.65108 89.8524 1.58273C90.1449 1.48031 90.2118 1.42137 90.2312 1.24879L90.2549 1.03924H86.8144H83.3739V1.27712C83.3739 1.52818 83.3788 1.53195 83.879 1.66655C84.629 1.86832 84.9873 2.52341 85.0949 3.88985C85.1929 5.13441 85.1867 18.8831 85.0877 19.7199C84.9959 20.4973 84.7511 21.1179 84.4466 21.3457C84.3277 21.4347 84.0629 21.5588 83.8582 21.6215C83.5224 21.7244 83.486 21.7579 83.486 21.9628V22.1901L86.8329 22.2105L90.1798 22.2309L90.1564 21.9832C90.1352 21.7603 90.0983 21.7264 89.7856 21.6433C89.0997 21.4613 88.8326 21.1371 88.6416 20.2548C88.5499 19.8309 88.5272 19.145 88.5272 16.7931V13.86L89.1864 13.0807C90.103 11.997 90.0785 12.0144 90.292 12.3018C90.85 13.0529 95.4279 20.2022 96.1055 21.3805L96.571 22.1901L99.3454 22.2106L102.12 22.2312V21.9741C102.12 21.7296 102.101 21.7124 101.738 21.6217C100.772 21.3806 99.8295 20.5719 98.8337 19.1297C98.4845 18.6241 97.9007 17.7814 97.5361 17.2572C97.1717 16.7329 96.6696 15.9861 96.4206 15.5976C96.1715 15.2091 95.5103 14.2202 94.951 13.4001C94.3919 12.58 93.6886 11.5205 93.3883 11.0457C93.088 10.5708 92.7832 10.1117 92.7111 10.0254C92.639 9.93906 92.5233 9.77464 92.454 9.65998L92.3281 9.45146L93.153 8.49688C97.6076 3.34181 98.9477 2.07441 100.388 1.65469C100.654 1.57723 100.886 1.49875 100.904 1.48031C100.921 1.46186 100.925 1.34626 100.912 1.22336L100.888 1L98.0308 1.02056ZM4.52072 1.32954C4.54238 1.60407 4.56433 1.62942 4.81774 1.67235C5.42254 1.77469 5.86601 2.3261 5.99917 3.14121C6.06161 3.52318 6.07879 5.95918 6.06154 11.9874L6.03779 20.3065L5.84002 20.7498C5.6374 21.2038 5.26734 21.5196 4.79436 21.6419C4.6482 21.6796 4.58823 21.7528 4.56456 21.9223C4.54693 22.0485 4.5491 22.1692 4.56941 22.1905C4.58972 22.2119 7.64247 22.2293 11.3533 22.2293C18.5305 22.2293 18.6925 22.2221 20.2419 21.8371C21.4958 21.5255 22.4149 20.9942 23.1729 20.1427C23.7161 19.5326 23.9281 19.16 24.1961 18.3444C24.3834 17.7746 24.4028 17.6114 24.4063 16.5786C24.4097 15.5977 24.3861 15.3594 24.2353 14.852C23.7781 13.3131 22.9655 12.3386 21.5283 11.6054L20.6945 11.1799L21.196 10.9176C21.5628 10.7258 21.8582 10.4796 22.2948 10.0017C23.2073 9.00285 23.5052 8.16671 23.5025 6.61144C23.4975 3.73422 22.1024 2.13987 18.8462 1.29015L18.062 1.08554L11.2797 1.05925L4.49741 1.03296L4.52072 1.32954ZM25.6305 1.07801C25.6102 1.09936 25.6078 1.21881 25.6252 1.34344C25.6528 1.5405 25.6955 1.57543 25.9538 1.61184C26.7358 1.72203 27.1652 2.38646 27.284 3.66979C27.3239 4.10065 27.3573 6.86376 27.3584 9.81012C27.3605 15.5147 27.3851 15.9997 27.7431 17.3634C27.9249 18.0558 28.3673 19.0849 28.7048 19.6004C29.6502 21.0445 31.4158 22.1259 33.4098 22.4824C34.1259 22.6105 34.5045 22.6298 35.6877 22.5985C37.3088 22.5555 37.9955 22.4038 39.1078 21.8429C40.9981 20.8895 42.1879 18.8725 42.5136 16.0685C42.5655 15.6214 42.5962 13.4318 42.5973 10.1039C42.5992 4.14029 42.6378 3.50364 43.0508 2.62198C43.3122 2.06405 43.7488 1.70116 44.2626 1.61483C44.4753 1.57904 44.5674 1.51696 44.6189 1.37483C44.657 1.26935 44.6693 1.15068 44.646 1.11113C44.6217 1.06985 43.492 1.03924 41.9894 1.03924H39.3751L39.3985 1.28881C39.4201 1.51947 39.4509 1.54529 39.8023 1.62801C40.7644 1.85451 41.3743 2.65094 41.5469 3.90626C41.5916 4.2307 41.6226 6.64048 41.6232 9.82919C41.6243 15.5594 41.5993 16.0525 41.2447 17.3141C40.8441 18.7394 39.8942 20.0285 38.85 20.5642C37.9694 21.016 37.3239 21.1539 36.0984 21.1519C34.3406 21.1491 33.3701 20.7838 32.4015 19.7603C31.7981 19.1224 31.5029 18.5775 31.1766 17.4987C30.7155 15.9741 30.7146 15.9582 30.7376 9.27087L30.7585 3.19749L30.9336 2.74135C31.166 2.13618 31.502 1.79494 32.0428 1.61506C32.4195 1.48973 32.4793 1.44264 32.4998 1.25507L32.5235 1.03924H29.0955C27.21 1.03924 25.6508 1.05666 25.6305 1.07801ZM45.8499 1.13703C45.8346 1.19118 45.7851 1.65925 45.7398 2.17722C45.6946 2.6952 45.5935 3.76883 45.5152 4.56315C45.4368 5.35746 45.3908 6.05681 45.4129 6.11732C45.4395 6.19015 45.5435 6.21927 45.7208 6.20357C45.9762 6.18089 45.9956 6.15789 46.1454 5.6994C46.5574 4.43875 47.5948 3.07349 48.5335 2.55692C49.3833 2.08917 49.9097 1.96352 51.1926 1.92208L52.3581 1.88433L52.3669 10.3106C52.3719 15.0734 52.3449 19.1103 52.3047 19.5958C52.2505 20.2504 52.1884 20.5521 52.0434 20.8635C51.8184 21.3466 51.6315 21.4912 51.0541 21.6291C50.6515 21.7251 50.6246 21.7459 50.6246 21.9608V22.1901L54.0462 22.2105L57.4679 22.2309L57.4444 21.9797C57.4232 21.7523 57.3878 21.7196 57.0708 21.635C56.3215 21.4352 55.9919 21.0437 55.7809 20.1031C55.6838 19.6702 55.668 18.3637 55.667 10.7121L55.6659 1.82406L55.8339 1.82571C55.9263 1.82665 56.4725 1.85945 57.0475 1.89862C57.8788 1.9552 58.2247 2.01634 58.7351 2.19677C60.3378 2.7634 61.3193 3.9185 62.0403 6.08648C62.0768 6.19627 62.1514 6.22303 62.3682 6.2042L62.6489 6.17979L62.6278 5.74814C62.5835 4.84019 62.3761 2.37775 62.2904 1.74259L62.2008 1.07848L54.0392 1.05855C47.5461 1.04262 45.872 1.0587 45.8499 1.13703ZM63.5078 1.30498C63.5078 1.5591 63.5223 1.57307 63.8377 1.62275C64.5009 1.72729 64.8804 2.19143 65.0888 3.15275C65.1365 3.37289 65.1875 5.95094 65.221 9.82919L65.2755 16.147L65.4694 16.9849C65.8401 18.5866 66.3837 19.6123 67.3825 20.5942C68.1035 21.303 68.5952 21.6173 69.579 21.9983C70.6963 22.431 71.2979 22.5446 72.7313 22.5937C74.7242 22.662 76.0546 22.375 77.2759 21.6138C78.5449 20.8227 79.357 19.6761 79.9318 17.8641C80.3366 16.5881 80.3826 15.9467 80.3986 11.3582C80.4195 5.32481 80.4738 3.72441 80.6801 3.05237C80.7921 2.68798 80.9403 2.40639 81.1406 2.17817C81.4436 1.83261 81.6088 1.73726 82.1603 1.58924C82.444 1.51311 82.4777 1.47944 82.4777 1.27162V1.03924H79.859H77.2403L77.2637 1.28614C77.2847 1.50746 77.3225 1.54239 77.6285 1.62354C78.5825 1.87672 79.0938 2.50292 79.3082 3.6807C79.469 4.56425 79.465 15.1955 79.3034 16.2426C79.0984 17.5705 78.5162 18.9108 77.8151 19.6689C76.8336 20.7301 75.2467 21.2929 73.5595 21.1783C72.5552 21.1101 71.9643 20.9533 71.2583 20.5673C70.1718 19.9733 69.4922 19.078 69.0049 17.5989C68.5747 16.2925 68.5668 16.1658 68.533 9.98898C68.5115 6.05508 68.5277 4.09532 68.5857 3.63196C68.7328 2.4567 69.1011 1.88535 69.856 1.66097C70.2856 1.53328 70.3788 1.45582 70.3788 1.22587V1.03924H66.9433H63.5078V1.30498ZM12.2009 3.55489C11.517 3.70252 10.9278 4.3755 10.7847 5.17248C10.686 5.72201 10.8062 6.45408 11.0856 7.00495C11.3607 7.54741 12.2322 8.61351 12.9166 9.24481C13.5266 9.80753 14.4885 10.614 14.5497 10.614C14.6351 10.614 16.2815 9.16837 16.8184 8.6219C18.4838 6.9267 18.9045 5.32575 17.9821 4.19334C17.5723 3.69012 17.2041 3.5195 16.531 3.5206C15.8311 3.52177 15.3954 3.72418 14.9355 4.26162L14.6114 4.64045L14.1708 4.19161C13.5961 3.60598 12.9426 3.39479 12.2009 3.55489ZM12.3071 13.1268C11.8557 13.1929 11.3247 13.5551 11.0765 13.9664C10.6111 14.7374 10.6238 15.5238 11.1182 16.56C11.5321 17.4272 12.8505 18.8606 14.1516 19.858L14.5728 20.181L15.1711 19.7205C15.9459 19.1241 17.3148 17.6971 17.7207 17.0627C18.2534 16.2299 18.4279 15.7538 18.43 15.1267C18.4322 14.4867 18.2791 14.1161 17.8257 13.6638C17.3951 13.2343 17.1062 13.1107 16.5241 13.1069C15.8668 13.1026 15.3156 13.3707 14.874 13.9094L14.5632 14.2885L14.3597 13.9933C13.9362 13.3788 13.0736 13.0148 12.3071 13.1268ZM10.3695 26.9437C8.81913 27.1079 7.14805 27.8461 6.29919 28.7418C5.66168 29.4145 5.28825 30.0021 5.07249 30.6725C4.23438 33.2757 4.99399 35.8663 7.00212 37.2535C7.6179 37.6789 8.67177 38.2528 9.51063 38.6196C10.7944 39.1811 13.0222 40.3458 13.4926 40.7014C14.6767 41.5967 15.112 42.4326 15.112 43.8117C15.112 45.7627 14.0216 47.1267 12.1246 47.5487C11.4698 47.6944 10.2457 47.6548 9.58532 47.4666C8.73361 47.224 7.95346 46.7303 7.22281 45.9718C6.06639 44.7712 5.50805 43.6862 5.02865 41.7077C4.9515 41.3893 4.93275 41.371 4.70803 41.3938L4.46941 41.4181L4.44648 43.4978C4.43386 44.6417 4.44558 45.8728 4.47254 46.2337L4.52154 46.8899L5.14501 47.1925C8.22733 48.689 11.8872 49.0013 14.3294 47.9762C16.1704 47.2035 17.3501 45.8802 17.8119 44.0697C18.0164 43.2676 18.0359 41.8061 17.8519 41.0649C17.5224 39.7383 16.6857 38.5247 15.5714 37.7573C14.9021 37.2963 13.3437 36.4597 11.9379 35.8067C9.95852 34.8872 9.0151 34.3397 8.45735 33.7868C8.15204 33.4842 7.87033 33.1171 7.75778 32.8754C7.51252 32.3486 7.41079 31.4953 7.50564 30.7607C7.68257 29.3903 8.44167 28.4924 9.84672 27.9916C10.3452 27.8138 10.5741 27.7783 11.2284 27.7772C12.4636 27.7753 13.4226 28.1576 14.3398 29.018C15.1078 29.7385 15.9662 31.3578 16.3469 32.8047C16.4749 33.291 16.4784 33.2952 16.7463 33.2953H17.0165L16.9982 31.7453C16.9882 30.8927 16.9599 29.7338 16.9353 29.1698L16.8906 28.1445L15.8332 27.7336C15.2517 27.5077 14.3879 27.2403 13.9135 27.1393C12.906 26.9252 11.3541 26.8395 10.3695 26.9437ZM92.7703 27.0179C90.5892 27.3793 88.4892 28.5785 87.1314 30.2383C86.2389 31.3295 85.5751 32.6098 85.1367 34.0858C84.3116 36.8638 84.4115 39.6433 85.4305 42.2576C85.617 42.7362 85.9027 43.3671 86.0653 43.6597C87.4777 46.201 89.7566 47.8777 92.4642 48.3678C93.5337 48.5613 95.2181 48.5816 96.1077 48.4115C97.7567 48.0963 99.3502 47.3101 100.604 46.1931C101.499 45.3948 102.622 43.7504 103.096 42.5423C104.496 38.9744 104.257 34.8513 102.465 31.6549C101.459 29.859 99.7743 28.3731 97.8321 27.5673C96.7212 27.1064 96.1717 27.0053 94.614 26.9751C93.8335 26.9599 93.0039 26.9792 92.7703 27.0179ZM19.6702 27.3698C19.6375 27.413 19.5876 27.8368 19.5595 28.3116C19.5314 28.7864 19.4618 29.5987 19.4048 30.1167C19.3478 30.6347 19.2785 31.3498 19.2508 31.706L19.2004 32.3534H19.4905C19.7776 32.3534 19.7823 32.3484 19.9581 31.8629C20.5192 30.3121 21.3573 29.1959 22.2965 28.7484C22.9877 28.419 23.8746 28.2508 24.9704 28.2412L25.904 28.2331V37.1016C25.904 45.3428 25.8947 46.0015 25.7726 46.416C25.5614 47.1334 25.097 47.5789 24.5604 47.5789C24.3501 47.5789 24.1705 47.8699 24.2487 48.084C24.2884 48.1928 24.6752 48.2067 27.6567 48.2067H31.0199V47.9421C31.0199 47.692 31.0026 47.6745 30.707 47.6249C29.9552 47.4985 29.4636 46.942 29.2972 46.0288C29.2039 45.517 29.1851 41.9283 29.2186 31.0273L29.2274 28.1708L30.2917 28.2161C32.1338 28.2946 33.1463 28.6817 33.9605 29.6192C34.4867 30.225 34.8025 30.7871 35.1662 31.7648C35.2947 32.1101 35.4393 32.3891 35.4877 32.3848C35.5361 32.3805 35.6642 32.3716 35.7725 32.3652L35.9695 32.3534L35.9317 31.6275C35.911 31.2282 35.8143 30.0981 35.717 29.1161L35.5399 27.3306L33.0372 27.3174C25.1823 27.2761 19.7252 27.2975 19.6702 27.3698ZM36.8453 27.534C36.8453 27.7515 36.8781 27.787 37.1627 27.8764C37.3373 27.9313 37.5658 28.0402 37.6706 28.1185C37.9381 28.3184 38.2368 28.9343 38.3325 29.4837C38.3853 29.7867 38.4146 31.7193 38.4163 35.0166C38.419 40.2632 38.4669 41.6836 38.6769 42.7522C38.9179 43.9789 39.4968 45.2553 40.1893 46.0872C41.1347 47.2228 42.9033 48.1587 44.6498 48.4475C45.46 48.5814 47.1965 48.5678 47.936 48.4217C50.3334 47.9479 52.156 46.2704 52.8163 43.9295C53.2144 42.5184 53.2174 42.4668 53.2709 35.9636C53.3203 29.973 53.3235 29.8743 53.4838 29.4221C53.8052 28.515 54.1869 28.0884 54.831 27.9166C55.1526 27.8308 55.1804 27.804 55.1804 27.5809V27.3384L52.7158 27.3149L50.2512 27.2914L50.2284 27.5375C50.2061 27.7788 50.2159 27.7868 50.7276 27.9502C51.5691 28.2188 51.9353 28.6589 52.2039 29.7243C52.3326 30.2348 52.3421 30.6563 52.3379 35.6889C52.3331 41.3423 52.3033 42.0066 52.0003 43.1794C51.6255 44.6309 50.6635 45.9326 49.5417 46.5061C48.6757 46.9489 48.1654 47.0592 47.0024 47.0554C45.2526 47.0497 44.3766 46.7117 43.372 45.655C42.4166 44.6502 41.9545 43.499 41.777 41.6825C41.7315 41.2163 41.7002 38.6139 41.701 35.347C41.7023 29.3526 41.7109 29.2069 42.1007 28.588C42.3396 28.2084 42.5764 28.0379 43.0328 27.9161C43.3606 27.8286 43.3802 27.8083 43.3802 27.5573V27.2914H40.1127H36.8453V27.534ZM56.3011 27.3171C56.2804 27.3389 56.2633 27.454 56.2633 27.5729C56.2633 27.7531 56.3037 27.7982 56.5061 27.8441C57.1801 27.997 57.5882 28.4098 57.7894 29.1421C57.8972 29.5348 57.9076 30.4447 57.8894 37.9321L57.8691 46.2839L57.6909 46.6982C57.4664 47.2201 57.1502 47.4569 56.4687 47.6132C56.301 47.6517 56.2633 47.7029 56.2633 47.8928C56.2633 48.0709 56.3041 48.136 56.4379 48.1713C56.5339 48.1966 58.7268 48.2027 61.3111 48.1849C66.5228 48.1489 66.4617 48.1543 68.1756 47.5769C69.2101 47.2284 69.768 46.9503 70.5983 46.3693C71.8982 45.46 73.0193 44.056 73.6447 42.5544C74.3088 40.9601 74.5611 39.6187 74.5595 37.6902C74.5577 35.5592 74.2899 34.1513 73.5949 32.6179C72.9064 31.0991 72.1148 30.1117 70.8767 29.2277C69.7431 28.4184 68.9892 28.0518 67.7817 27.7229C66.2731 27.312 66.2498 27.3105 61.137 27.2934C58.498 27.2846 56.3219 27.2953 56.3011 27.3171ZM78.2767 27.3109L76.2789 27.3332V27.5599C76.2789 27.7596 76.3203 27.8016 76.6252 27.9107C77.4095 28.1915 77.7862 28.7761 77.9192 29.9185C78.0143 30.7348 78.0207 44.2904 77.9266 45.397C77.8101 46.7659 77.5794 47.1883 76.7559 47.54C76.3666 47.7062 76.3162 47.7529 76.3162 47.9477V48.1675L79.5366 48.188C82.9659 48.2097 82.971 48.2092 82.8787 47.8381C82.8507 47.7255 82.7353 47.6437 82.5116 47.5779C82.061 47.4453 81.6227 47.0296 81.4567 46.5774C81.3274 46.2254 81.3201 45.7553 81.3201 37.8079C81.3201 30.9352 81.3386 29.3433 81.4223 29.0409C81.5747 28.4896 81.9526 28.0704 82.4439 27.9078C82.6679 27.8335 82.8516 27.7351 82.8522 27.689C82.8527 27.643 82.8735 27.5258 82.8982 27.4287L82.9432 27.2521L81.6089 27.2704C80.875 27.2804 79.3755 27.2987 78.2767 27.3109ZM61.2109 37.749L61.2299 47.3042L62.6116 47.3273C65.0882 47.3687 66.1689 47.1876 67.4354 46.519C68.9134 45.7389 69.73 44.6202 70.4787 42.3498C70.9156 41.0249 71.0768 39.8176 71.0798 37.8471C71.0827 35.9462 70.9924 35.0402 70.672 33.757C70.2742 32.1637 69.7711 31.1328 68.9224 30.1713C68.2239 29.3801 67.4836 28.8801 66.5766 28.5872C65.5147 28.2443 65.0723 28.1952 63.0407 28.1945L61.1919 28.1939L61.2109 37.749ZM91.0024 33.4475C89.9953 33.8399 89.4022 34.74 89.3963 35.8851C89.3895 37.1944 90.1033 38.5152 91.605 39.972C92.7373 41.0705 94.1939 42.3206 94.3414 42.3206C94.417 42.3206 94.5428 42.2454 94.6211 42.1535C94.6994 42.0617 95.0322 41.7712 95.3608 41.5082C95.6895 41.2451 96.4315 40.5344 97.0098 39.9289C98.5846 38.2804 99.1215 37.3223 99.1879 36.0423C99.231 35.2116 99.0573 34.6635 98.5705 34.0945C98.0903 33.5332 97.6276 33.3372 96.7799 33.3356C96.2074 33.3346 96.0451 33.3653 95.686 33.5423C95.2834 33.7405 94.677 34.2879 94.3944 34.7079C94.2908 34.862 94.2534 34.8789 94.2204 34.7865C94.1314 34.5373 93.3268 33.7398 92.9709 33.5481C92.4549 33.27 91.5734 33.225 91.0024 33.4475ZM8.76379 50.3937C8.76379 50.4311 8.99068 50.4788 9.26791 50.4998C9.82394 50.5419 10.6093 50.8501 11.2336 51.271C11.7238 51.6016 11.6648 51.6447 11.1349 51.3431C10.2591 50.8447 8.50045 50.4009 7.87713 50.5211C7.38854 50.6152 6.12203 51.0049 5.64569 51.2076C5.389 51.3169 5.17891 51.391 5.17891 51.3722C5.17891 51.2969 6.29037 50.7939 6.70256 50.6826C7.19899 50.5485 7.3084 50.4827 7.03468 50.4827C6.24489 50.4827 4.46314 51.5267 3.4932 52.558C2.95069 53.1347 2.49026 53.9399 2.49026 54.312C2.49026 54.4186 2.42237 54.6213 2.33939 54.7625C2.25642 54.9035 2.17427 55.1549 2.15672 55.3211C2.13924 55.4872 2.08734 55.7822 2.04148 55.9764C1.9305 56.4461 2.05014 57.6006 2.30586 58.5278C2.89632 60.6689 4.28143 62.149 6.2245 62.7151C9.73394 63.7375 13.1801 61.9317 14.2167 58.5271C14.3543 58.075 14.384 57.7969 14.3846 56.9574C14.3852 56.0569 14.3611 55.8588 14.1796 55.2701C13.7673 53.932 13.0777 52.8117 12.0108 51.7468C11.1644 50.9019 9.94963 50.3257 9.01503 50.3257C8.87686 50.3257 8.76379 50.3563 8.76379 50.3937ZM7.9911 50.7771C7.97205 50.8094 8.15794 51.1714 8.40425 51.5815C8.83399 52.297 9.51063 53.6293 9.51063 53.76C9.51063 53.7945 8.32598 53.8217 6.87799 53.8204C4.60235 53.8185 4.15931 53.8376 3.61098 53.9618C3.26213 54.0407 2.93441 54.1422 2.8828 54.1872C2.73149 54.3192 2.77473 54.4292 2.95704 54.376C3.69911 54.1593 6.25027 53.8677 6.32294 53.9913C6.36073 54.0555 5.86527 54.9235 4.91595 56.4564C3.92466 58.057 3.18535 59.607 3.31112 59.8209C3.3531 59.8922 3.50508 59.6402 3.78798 59.0301C4.20554 58.1297 5.07973 56.6309 5.1465 56.701C5.16622 56.7217 5.47907 57.3706 5.84181 58.143C6.64901 59.862 7.90618 62.0488 8.36325 62.5292C8.65564 62.8364 8.53293 62.4559 8.10387 61.7246C7.7011 61.0382 7.04603 59.741 7.04603 59.6299C7.04603 59.606 7.62581 59.5859 8.33435 59.5849C10.6098 59.582 13.4689 59.2735 13.4689 59.0309C13.4689 58.937 13.491 58.9356 12.0126 59.1169C11.3143 59.2024 10.5917 59.27 10.4069 59.267C9.7441 59.2564 9.74343 59.2664 10.4928 58.0558C11.8176 55.9156 12.2452 55.0885 12.7349 53.7198C12.9552 53.1038 12.8625 52.933 12.6179 53.5042C12.1058 54.7003 11.1999 56.4476 11.0923 56.447C11.0645 56.4468 10.9774 56.2791 10.8987 56.0742C10.3747 54.7085 8.65549 51.3543 8.2439 50.8947C8.07138 50.702 8.043 50.6888 7.9911 50.7771ZM6.91915 50.9561C5.62531 51.3075 4.56067 51.9069 3.91794 52.646C3.57775 53.0371 3.11866 53.7602 3.17452 53.8169C3.18841 53.831 3.46863 53.7859 3.79724 53.7168C4.27224 53.6168 4.89422 53.591 6.83169 53.5911L9.26873 53.5912L9.12959 53.2501C8.79515 52.4302 7.75494 50.7931 7.57495 50.8034C7.50997 50.8071 7.2149 50.8758 6.91915 50.9561ZM9.02197 51.7642C9.68024 52.9259 9.9034 53.3817 10.558 54.9022C10.8333 55.5415 11.0883 56.0674 11.1248 56.0709C11.2166 56.0795 12.311 53.8363 12.4634 53.3272L12.5877 52.9119L12.3862 52.6341C11.7318 51.7327 9.90161 50.7966 8.79343 50.7966H8.47363L9.02197 51.7642ZM12.8456 53.9547C12.5493 54.853 11.7281 56.4724 10.9385 57.715C10.4818 58.4339 10.1081 59.0483 10.1081 59.0804C10.1081 59.1459 10.8043 59.0907 12.4606 58.894L13.5807 58.761L13.6778 58.4496C13.9074 57.7133 13.9109 56.1027 13.6852 55.0739C13.5931 54.6542 13.3193 54.0095 13.1098 53.7193L12.9817 53.5419L12.8456 53.9547ZM4.95486 54.2137C4.56463 54.2712 3.89359 54.3661 3.46363 54.4244L2.6819 54.5305L2.58974 54.8649C2.42424 55.4657 2.34224 56.602 2.41901 57.2321C2.49526 57.8585 2.71566 58.6446 2.95585 59.1471L3.10215 59.4531L3.45362 58.7547C4.01092 57.6471 4.92902 56.0127 5.52583 55.0655C5.82793 54.5861 6.07513 54.1711 6.07513 54.1433C6.07513 54.0732 5.78207 54.0917 4.95486 54.2137ZM25.0451 54.3995C24.5979 54.4982 24.312 54.7073 24.0958 55.094C23.905 55.4349 23.8875 55.5331 23.8875 56.2572C23.8875 56.9989 23.9015 57.0722 24.1124 57.4344C24.5466 58.1801 25.4405 58.3984 26.2468 57.9558C26.7376 57.6864 26.9996 57.2163 27.0476 56.519C27.1357 55.2393 26.6554 54.4891 25.6799 54.3826C25.4745 54.3602 25.1888 54.3678 25.0451 54.3995ZM36.7135 54.4161C35.7743 54.541 35.1897 55.6079 35.421 56.7751C35.5923 57.6397 36.0842 58.0808 36.9594 58.1546C37.563 58.2055 37.9656 58.0728 37.9656 57.8229C37.9656 57.6529 37.9473 57.6456 37.6855 57.7094C36.5274 57.9921 35.8744 57.4763 35.8744 56.279C35.8744 55.0079 36.5863 54.4731 37.7872 54.8419C37.9594 54.8948 38.1009 54.6746 37.9778 54.5452C37.8712 54.4331 37.1439 54.3589 36.7135 54.4161ZM51.4431 54.408C50.9532 54.4798 50.5938 54.7653 50.3821 55.2511C50.2178 55.6284 50.1999 55.7577 50.2278 56.3698C50.255 56.9665 50.2896 57.1134 50.4793 57.4352C50.758 57.9081 51.2078 58.1739 51.7293 58.1739C52.8257 58.1739 53.4253 57.4926 53.4253 56.247C53.4253 55.4715 53.1284 54.8212 52.6502 54.5488C52.4469 54.4331 51.7932 54.3569 51.4431 54.408ZM58.3545 54.3995C57.9073 54.4982 57.6215 54.7073 57.4052 55.094C57.2147 55.4343 57.1969 55.5336 57.1969 56.2511C57.1969 56.9654 57.2153 57.0688 57.4016 57.4019C57.6753 57.891 58.0196 58.1041 58.618 58.1546C59.0324 58.1896 59.1514 58.1666 59.5097 57.9824C60.0449 57.7072 60.2976 57.2836 60.3521 56.5699C60.4529 55.2505 59.9794 54.4907 58.9893 54.3826C58.784 54.3602 58.4983 54.3678 58.3545 54.3995ZM100.962 54.4417C100.284 54.6367 99.8793 55.3212 99.8793 56.2716C99.8793 57.5055 100.598 58.2553 101.682 58.152C102.219 58.1009 102.535 57.915 102.826 57.4804C103.029 57.1766 103.051 57.0814 103.075 56.3855C103.1 55.6747 103.088 55.5941 102.891 55.1916C102.737 54.8776 102.599 54.714 102.381 54.5912C101.983 54.3664 101.427 54.3079 100.962 54.4417ZM17.5704 54.4393C17.5533 54.4572 17.5489 55.2872 17.5606 56.2837L17.582 58.0954H17.7631C17.9393 58.0954 17.9448 58.0767 17.9658 57.4125L17.9874 56.7294L18.5892 56.6393C18.9202 56.5897 19.2861 56.4837 19.4023 56.4037C19.7877 56.1383 19.9204 55.5247 19.708 54.9904C19.5441 54.5783 19.1327 54.4107 18.2799 54.4085C17.9068 54.4076 17.5875 54.4215 17.5704 54.4393ZM20.7134 56.2424V58.0954H20.9374H21.1615V57.3498V56.6043L21.5536 56.6059L21.9457 56.6076L22.3454 57.3515C22.7063 58.0234 22.766 58.0954 22.9615 58.0954C23.0806 58.0954 23.178 58.0774 23.178 58.0555C23.178 58.0336 22.9931 57.6791 22.7672 57.2679C22.5413 56.8567 22.3577 56.495 22.3593 56.4642C22.3609 56.4333 22.4701 56.337 22.6021 56.2501C23.1382 55.8969 23.1256 54.9404 22.5805 54.6072C22.3729 54.4804 22.1537 54.4415 21.5162 54.4185L20.7134 54.3894V56.2424ZM28.0325 56.2426V58.0954H28.7089C29.6428 58.0954 30.0091 57.9845 30.387 57.5873C30.714 57.2437 30.8705 56.8047 30.8705 56.2306C30.8705 55.7641 30.6727 55.1684 30.4429 54.9423C30.0369 54.5431 29.7704 54.4546 28.8727 54.4212L28.0325 54.3898V56.2426ZM31.7667 55.7827C31.7667 57.3381 31.8156 57.5546 32.2439 57.8979C32.4517 58.0644 32.619 58.1216 32.98 58.1494C33.612 58.1981 34.0465 57.9724 34.2873 57.4705C34.4423 57.1477 34.4554 57.0146 34.4554 55.7636V54.4068H34.2313H34.0073V55.7841C34.0073 57.3286 33.9552 57.5462 33.5503 57.6945C33.0406 57.8812 32.4202 57.711 32.2891 57.3485C32.2482 57.2357 32.2148 56.5277 32.2148 55.7751V54.4068H31.9908H31.7667V55.7827ZM38.4883 54.603C38.4883 54.7948 38.5008 54.7992 39.0485 54.7992H39.6086V56.4473V58.0954H39.8327H40.0567V56.4473V54.7992H40.6169C41.1645 54.7992 41.177 54.7948 41.177 54.603V54.4068H39.8327H38.4883V54.603ZM43.4083 54.4571C43.3928 54.4942 43.3802 55.3191 43.3802 56.2903V58.0562L43.5856 58.081L43.791 58.1059V57.4056V56.7053L44.3322 56.6525C44.6298 56.6233 44.988 56.537 45.1282 56.4606C45.8006 56.0939 45.8384 54.9503 45.19 54.5887C44.9272 54.4421 43.4597 54.3337 43.4083 54.4571ZM46.6041 54.4591C46.5767 54.4878 46.5543 55.3178 46.5543 56.3034V58.0954H46.7784H47.0024V57.2321V56.3688H47.8899C48.9327 56.3688 48.8669 56.2959 48.8685 57.4534C48.8695 58.1667 48.8737 58.1842 49.0376 58.1598L49.2056 58.1347L49.2256 56.2707L49.2457 54.4068H49.0203H48.7949V55.1916V55.9764H47.8986H47.0024V55.1916C47.0024 54.4217 46.9991 54.4068 46.8282 54.4068C46.7323 54.4068 46.6315 54.4303 46.6041 54.4591ZM53.9481 54.603C53.9481 54.7948 53.9606 54.7992 54.5082 54.7992H55.0684V56.4473V58.0954H55.2435C55.4163 58.0954 55.4193 58.0811 55.4676 57.0235C55.4945 56.434 55.5165 55.6923 55.5165 55.3754V54.7992H56.0393C56.5471 54.7992 56.5621 54.7936 56.5621 54.603V54.4068H55.2551H53.9481V54.603ZM62.1634 54.5272C61.7523 54.7212 61.4244 55.1057 61.3026 55.5372C60.9724 56.7055 61.367 57.7521 62.2545 58.0619C62.6537 58.2012 63.662 58.1882 63.9132 58.0405C64.0093 57.9839 64.0403 57.7926 64.0669 57.0908L64.1001 56.2119H63.5052C62.9656 56.2119 62.9103 56.2261 62.9103 56.3645C62.9103 56.4909 62.9712 56.5213 63.265 56.5411L63.6198 56.565V57.1536V57.7422H63.0089C62.5083 57.7422 62.3608 57.7131 62.192 57.5804C61.7743 57.2524 61.6796 57.0336 61.6566 56.3435C61.6383 55.7932 61.6596 55.657 61.8063 55.3878C62.0614 54.9195 62.5186 54.6954 63.097 54.7551C63.3435 54.7806 63.6328 54.8217 63.74 54.8465C63.8831 54.8797 63.9481 54.8551 63.9851 54.7538C64.0713 54.5179 63.9036 54.4523 63.1519 54.4277C62.6123 54.4101 62.3574 54.4357 62.1634 54.5272ZM65.0762 56.2511V58.0954H65.3002H65.5243V57.3581V56.6207L65.8072 56.5924C65.9628 56.5768 66.1398 56.574 66.2005 56.5864C66.2611 56.5986 66.4898 56.9432 66.7088 57.352C67.0936 58.0709 67.1154 58.0954 67.3697 58.0954C67.6321 58.0954 67.6324 58.095 67.5119 57.9017C67.1941 57.3921 66.7192 56.5377 66.7192 56.4756C66.7192 56.4373 66.7922 56.3712 66.8814 56.3286C67.3636 56.0982 67.5363 55.1727 67.1729 54.7661C66.9297 54.4941 66.5914 54.4077 65.767 54.4072L65.0762 54.4068V56.2511ZM68.6727 56.1159C67.9012 58.2263 67.945 58.065 68.1295 58.1157C68.3167 58.1671 68.3553 58.1144 68.6182 57.4479L68.8272 56.9182H69.4818C69.929 56.9182 70.162 56.9506 70.2173 57.0206C70.2618 57.0769 70.3753 57.3506 70.4697 57.6288C70.6098 58.0418 70.6724 58.1363 70.8106 58.1437C70.9037 58.1486 70.9962 58.1249 71.0161 58.0911C71.0361 58.0572 70.8372 57.4528 70.5742 56.7479C70.3112 56.043 70.0169 55.2279 69.9202 54.9365C69.7555 54.44 69.7304 54.4069 69.5201 54.409C69.2972 54.4112 69.292 54.4215 68.6727 56.1159ZM71.7231 56.2511V58.0954H71.9472H72.1712V57.4005V56.7055L72.6991 56.659C73.5853 56.581 74.001 56.1999 74.001 55.4656C74.001 55.1069 73.9686 55.0094 73.7812 54.8038C73.5003 54.4958 73.1886 54.4078 72.3766 54.4072L71.7231 54.4068V56.2511ZM74.9346 56.2459V58.0954H75.1586H75.3827V57.2321V56.3688H76.2789H77.1751V57.2321V58.0954H77.3992H77.6232V56.2511V54.4068H77.3992H77.1751V55.1916V55.9764H76.2816H75.388L75.3667 55.2112L75.3453 54.446L75.1399 54.4212L74.9346 54.3963V56.2459ZM78.3701 54.5027C78.3701 54.5555 78.6128 55.0587 78.9094 55.621L79.4489 56.6435L79.4768 57.3695C79.504 58.0756 79.5097 58.0954 79.6843 58.0954C79.86 58.0954 79.8637 58.0812 79.8637 57.414V56.7326L80.3774 55.7462C81.1512 54.2604 81.1006 54.4068 80.8405 54.4068C80.6333 54.4068 80.5901 54.4622 80.2418 55.1746C79.6465 56.3924 79.7359 56.38 79.1853 55.3219C78.794 54.5699 78.6789 54.4068 78.5396 54.4068C78.4463 54.4068 78.3701 54.4499 78.3701 54.5027ZM83.5922 54.6362C83.3071 54.9358 83.296 55.3486 83.5621 55.7602L83.7504 56.0513L83.3656 56.4411C82.9846 56.8269 82.9811 56.835 83.0171 57.2285C83.0578 57.6736 83.212 57.9047 83.5769 58.067C83.9888 58.2502 84.5021 58.2024 84.9842 57.9359L85.4146 57.698L85.612 57.8967C85.7442 58.0298 85.8933 58.0954 86.0636 58.0954H86.3177L85.9989 57.754L85.6801 57.4126L85.9087 56.9398C86.1872 56.3638 86.1981 56.2119 85.9607 56.2119C85.8207 56.2119 85.758 56.2837 85.658 56.5588C85.4505 57.13 85.3968 57.1338 84.8604 56.6153L84.3838 56.1548L84.6359 55.9319C85.3744 55.2789 85.1349 54.4068 84.217 54.4068C83.8674 54.4068 83.7801 54.4388 83.5922 54.6362ZM88.1575 54.5389C88.1596 54.6173 88.4233 55.4408 88.7435 56.3688L89.3259 58.0562H89.5696H89.8133L90.1703 56.9967C90.3667 56.4139 90.6456 55.5928 90.7902 55.172L91.053 54.4068H90.8463C90.6487 54.4068 90.6241 54.4524 90.2862 55.4467C90.0919 56.0186 89.8618 56.7073 89.7749 56.977C89.6062 57.5011 89.5384 57.5726 89.477 57.291C89.4558 57.1939 89.2374 56.514 88.9914 55.7802C88.5769 54.5429 88.5302 54.4442 88.3491 54.4212C88.2004 54.4023 88.1547 54.4304 88.1575 54.5389ZM91.7386 56.2511V58.0954H91.9627H92.1867V56.2511V54.4068H91.9627H91.7386V56.2511ZM93.307 56.2426V58.0954L93.9978 58.0949C94.7959 58.0945 95.1877 58.0012 95.5296 57.73C95.9258 57.4158 96.1024 56.9741 96.1052 56.2903C96.1082 55.5759 96.0545 55.3555 95.7996 55.0372C95.4408 54.5891 95.0856 54.4568 94.1472 54.4215L93.307 54.3898V56.2426ZM97.1159 56.2534V58.1L98.1055 58.0781C99.0383 58.0574 99.0951 58.0471 99.0951 57.8992C99.0951 57.754 99.0383 57.7406 98.335 57.72C97.5751 57.6977 97.5748 57.6975 97.5316 57.4845C97.5078 57.3673 97.5039 57.0948 97.5227 56.8789C97.5416 56.6631 97.5586 56.46 97.5605 56.4277C97.5625 56.3953 97.9024 56.3688 98.3161 56.3688C99.0533 56.3688 99.0677 56.3654 99.0443 56.1922C99.0217 56.0257 98.9781 56.0135 98.2736 55.9764L97.5267 55.9372L97.5048 55.3709L97.4829 54.8048L98.2517 54.7823C98.9846 54.761 99.0215 54.7517 99.0443 54.5834C99.068 54.408 99.0616 54.4068 98.0921 54.4068H97.1159V56.2534ZM18.0434 54.7727C17.9779 54.8004 17.95 55.0353 17.95 55.5601V56.3081L18.4818 56.2764C18.9512 56.2486 19.0344 56.2194 19.1914 56.0278C19.3976 55.7758 19.4299 55.3178 19.2594 55.062C19.1016 54.8252 18.3444 54.645 18.0434 54.7727ZM21.2113 54.773C21.1839 54.8018 21.1615 55.1373 21.1615 55.5186V56.2119H21.6061C22.1313 56.2119 22.384 56.1083 22.4976 55.8464C22.7034 55.3716 22.5261 54.9346 22.0742 54.8026C21.7594 54.7108 21.286 54.6946 21.2113 54.773ZM25.0824 54.7782C24.5764 54.9113 24.2973 55.4441 24.2999 56.2723C24.3029 57.2604 24.7018 57.7809 25.4558 57.7809C25.9057 57.7809 26.2513 57.5828 26.4415 57.2159C26.6319 56.8488 26.6311 55.6519 26.4402 55.2835C26.2247 54.8675 25.6109 54.6392 25.0824 54.7782ZM43.8227 54.8254C43.8017 54.8829 43.7944 55.2273 43.8064 55.5906L43.8283 56.2511H44.3389C44.8058 56.2511 44.8649 56.2323 45.0298 56.0309C45.2485 55.7636 45.2722 55.2897 45.0793 55.0394C44.8683 54.7658 43.9045 54.6016 43.8227 54.8254ZM51.2595 54.8582C50.4811 55.2668 50.4403 57.1364 51.1991 57.6226C51.7112 57.9507 52.4974 57.7575 52.788 57.2321C52.9101 57.0113 52.9399 56.819 52.9399 56.2511C52.9399 55.6832 52.9101 55.4909 52.788 55.2701C52.6039 54.9372 52.2225 54.7209 51.8196 54.7209C51.6553 54.7209 51.4032 54.7827 51.2595 54.8582ZM58.2051 54.8582C57.8173 55.0618 57.6072 55.5517 57.6093 56.2481C57.6123 57.2619 58.0037 57.7809 58.7653 57.7809C59.5268 57.7809 59.9183 57.2619 59.9213 56.2481C59.9242 55.2739 59.5056 54.7209 58.7653 54.7209C58.601 54.7209 58.3489 54.7827 58.2051 54.8582ZM65.5803 54.7647C65.5495 54.7981 65.5243 55.1373 65.5243 55.5186V56.2119L65.991 56.2107C66.5899 56.2092 66.8124 56.0913 66.8979 55.7301C66.9844 55.365 66.9094 55.0664 66.6942 54.9182C66.5018 54.7857 65.6672 54.6708 65.5803 54.7647ZM72.2272 54.7649C72.1965 54.7982 72.1712 55.1589 72.1712 55.5667V56.3081L72.703 56.2764C73.1724 56.2486 73.2556 56.2194 73.4125 56.0278C73.7089 55.6657 73.6118 55.0634 73.2273 54.8788C72.9815 54.7609 72.3026 54.6835 72.2272 54.7649ZM83.9852 54.7744C83.9312 54.7971 83.8559 54.9019 83.8177 55.0074C83.7371 55.23 83.8969 55.7158 84.0742 55.7873C84.3684 55.906 84.8066 55.2762 84.6474 54.9636C84.536 54.745 84.2497 54.6632 83.9852 54.7744ZM100.962 54.8642C100.552 55.0688 100.384 55.4054 100.351 56.0885C100.299 57.1841 100.692 57.7815 101.466 57.7815C102.295 57.7815 102.643 57.3278 102.642 56.2459C102.642 55.5502 102.516 55.1885 102.181 54.9311C101.895 54.7107 101.332 54.6799 100.962 54.8642ZM28.4806 56.282V57.7815L28.798 57.7796C29.9393 57.7727 30.4972 57.1603 30.4067 56.0137C30.3702 55.5513 30.2263 55.2791 29.8713 55.0006C29.7142 54.8774 29.5252 54.8324 29.073 54.8108L28.4806 54.7825V56.282ZM93.7551 56.3017V57.8042L94.2848 57.7576C95.2467 57.6729 95.6257 57.2823 95.6843 56.3154C95.7449 55.3149 95.2695 54.7992 94.2864 54.7992H93.7551V56.3017ZM69.2341 55.7355C69.0832 56.1635 68.9598 56.5342 68.9598 56.5591C68.9598 56.5839 69.2118 56.6043 69.5199 56.6043C69.828 56.6043 70.08 56.5827 70.08 56.5562C70.08 56.5058 69.5546 55.0094 69.5254 54.9762C69.516 54.9657 69.3849 55.3074 69.2341 55.7355ZM6.76978 55.3453C6.48732 55.5262 6.33989 55.9707 6.44026 56.3385C6.56521 56.7963 6.74013 57.0456 7.41983 57.734L8.10663 58.4298L8.81666 57.6936C9.20726 57.2887 9.58965 56.8162 9.66643 56.6435C9.99848 55.8972 9.69563 55.1973 9.03893 55.1933C8.71711 55.1914 8.51456 55.2828 8.23532 55.556L8.04285 55.7442L7.89939 55.5776C7.5592 55.1826 7.15381 55.0992 6.76978 55.3453ZM14.0664 56.6349C14.0664 57.6199 13.7476 59.0189 13.3243 59.8906C13.0731 60.4082 13.2793 60.1979 13.5835 59.6263C13.9425 58.9516 14.131 58.3635 14.2205 57.6387C14.2985 57.0073 14.2455 56.0549 14.1324 56.0549C14.0961 56.0549 14.0664 56.3158 14.0664 56.6349ZM83.7025 56.6357C83.3872 56.967 83.3621 57.3053 83.632 57.5888C83.8637 57.8324 84.3171 57.8447 84.7883 57.62L85.1198 57.462L84.6036 56.9154C84.3197 56.6148 84.058 56.3688 84.022 56.3688C83.986 56.3688 83.8422 56.4889 83.7025 56.6357ZM4.66822 57.7226C4.21682 58.5096 3.64048 59.7087 3.56826 60.0108C3.52024 60.2121 3.56961 60.2874 4.10935 60.8366C5.01028 61.7534 6.32958 62.3804 7.67593 62.532L8.17041 62.5876L7.76675 61.97C6.8414 60.5541 5.51044 58.0821 5.26869 57.3302C5.22358 57.19 5.1536 57.0751 5.11312 57.0751C5.07264 57.0751 4.87248 57.3666 4.66822 57.7226ZM2.78922 59.4694C3.12187 60.2849 3.89463 61.2605 4.62789 61.7906C5.28952 62.269 6.26042 62.635 7.1954 62.7586C7.41162 62.7872 7.29182 62.7326 6.85932 62.6055C5.13224 62.0978 3.77559 61.0579 2.98341 59.6346C2.82455 59.3492 2.68347 59.1157 2.6698 59.1157C2.65613 59.1157 2.70983 59.2748 2.78922 59.4694ZM12.9088 59.4013C12.2582 59.5799 9.42968 59.822 7.99453 59.822C7.34448 59.822 7.33551 59.8246 7.38727 59.9986C7.45336 60.2205 7.90946 61.0766 8.41396 61.9254L8.80113 62.577L9.17455 62.5248C10.4546 62.3462 11.74 61.638 12.5844 60.6461C12.8785 60.3005 13.3473 59.4702 13.3075 59.3652C13.2936 59.3288 13.1142 59.3449 12.9088 59.4013Z" fill="#F0EFEC"/>
</g>
<defs>
<clipPath id="clip0_40001394_843">
<rect width="109" height="50" fill="white"/>
</clipPath>
</defs>
</svg>
